<svg id="Layer_1" data-name="Layer 1" xmlns="http://www.w3.org/2000/svg" xmlns:xlink="http://www.w3.org/1999/xlink" viewBox="0 0 196 57.75"><defs><style>.cls-1{fill:url(#linear-gradient);}.cls-2{fill:url(#linear-gradient-2);}.cls-3{fill:url(#linear-gradient-3);}.cls-4{fill:url(#linear-gradient-4);}</style><linearGradient id="linear-gradient" x1="0.18" y1="59.05" x2="199.75" y2="7.11" gradientUnits="userSpaceOnUse"><stop offset="0" stop-color="#30bac6"/><stop offset="1" stop-color="#b6509e"/></linearGradient><linearGradient id="linear-gradient-2" x1="4.02" y1="73.81" x2="203.59" y2="21.88" xlink:href="#linear-gradient"/><linearGradient id="linear-gradient-3" x1="-1.36" y1="53.14" x2="198.21" y2="1.2" xlink:href="#linear-gradient"/><linearGradient id="linear-gradient-4" x1="-4.93" y1="39.41" x2="194.64" y2="-12.53" xlink:href="#linear-gradient"/></defs><title>Banner_Ghost</title><path class="cls-1" d="M120.71,52.4,101.84,6.65a3.65,3.65,0,0,1-.23-1.3,3.54,3.54,0,0,1,.92-2.56,3.33,3.33,0,0,1,2.52-1,3.21,3.21,0,0,1,1.95.65,4.11,4.11,0,0,1,1.34,1.72L126.28,49,144.23,4.21a4.08,4.08,0,0,1,1.34-1.72,3.2,3.2,0,0,1,1.95-.65,3.33,3.33,0,0,1,2.52,1,3.54,3.54,0,0,1,.92,2.56,3.68,3.68,0,0,1-.23,1.3L131.86,52.4q-1.6,3.51-4.73,3.51h-1.68Q122.31,55.91,120.71,52.4Z"/><path class="cls-2" d="M158.94,54.54a3.32,3.32,0,0,1-1-2.44V5.73a3.45,3.45,0,0,1,1-2.48,3.26,3.26,0,0,1,2.44-1H192a3.26,3.26,0,0,1,3.28,3.28,3,3,0,0,1-1,2.29,3.24,3.24,0,0,1-2.33.92H164.9V25.59h24.36a3.26,3.26,0,0,1,3.28,3.28,3,3,0,0,1-1,2.29,3.24,3.24,0,0,1-2.33.92H164.9V49H192a3.26,3.26,0,0,1,3.28,3.28,3,3,0,0,1-1,2.29,3.24,3.24,0,0,1-2.33.92H161.39A3.32,3.32,0,0,1,158.94,54.54Z"/><path class="cls-3" d="M106.15,51.1,87.28,5.35q-1.6-3.51-4.73-3.51H80.87q-3.13,0-4.74,3.51l-8.21,19.9H61.75a3.39,3.39,0,0,0-3.39,3.39v.07a3.39,3.39,0,0,0,3.39,3.39H65.1l-7.83,19A3.66,3.66,0,0,0,57,52.4,3.54,3.54,0,0,0,58,55a3.33,3.33,0,0,0,2.52,1,3.2,3.2,0,0,0,1.95-.65,4.09,4.09,0,0,0,1.34-1.72l8.6-21.44h6a3.39,3.39,0,0,0,3.39-3.39v-.07a3.39,3.39,0,0,0-3.39-3.39H75.11l6.6-16.47L99.66,53.54A4.11,4.11,0,0,0,101,55.26a3.21,3.21,0,0,0,1.95.65,3.33,3.33,0,0,0,2.52-1,3.54,3.54,0,0,0,.92-2.56A3.66,3.66,0,0,0,106.15,51.1Z"/><path class="cls-4" d="M49.81,51.1,30.95,5.35q-1.6-3.51-4.73-3.51H24.53q-3.13,0-4.74,3.51l-8.21,19.9H5.42A3.39,3.39,0,0,0,2,28.65v.07A3.39,3.39,0,0,0,5.42,32.1H8.77L.93,51.1a3.66,3.66,0,0,0-.23,1.3A3.54,3.54,0,0,0,1.62,55a3.33,3.33,0,0,0,2.52,1,3.2,3.2,0,0,0,1.95-.65,4.09,4.09,0,0,0,1.34-1.72L16,32.1h6a3.39,3.39,0,0,0,3.39-3.39v-.07A3.39,3.39,0,0,0,22,25.26H18.77l6.6-16.47L43.32,53.54a4.11,4.11,0,0,0,1.34,1.72,3.21,3.21,0,0,0,1.95.65,3.33,3.33,0,0,0,2.52-1A3.54,3.54,0,0,0,50,52.4,3.66,3.66,0,0,0,49.81,51.1Z"/></svg>