<svg xmlns="http://www.w3.org/2000/svg" viewBox="0 0 220.94 193.31"><defs><style>.cls-1{fill:#fff;}.cls-2{fill:#aa9887;}.cls-3{fill:#ddccc0;}.cls-4{fill:#aecc7a;}.cls-5,.cls-6,.cls-7{fill:#010101;isolation:isolate;}.cls-5{opacity:0.6;}.cls-6{opacity:0.45;}.cls-7{opacity:0.8;}</style></defs><title>dark-theme-logo</title><g id="Ebene_2" data-name="Ebene 2"><g id="color_2" data-name="color 2"><path class="cls-1" d="M20.06,144h-1.8v-4.14H29.52a5.81,5.81,0,0,1,3.89,1.21,4.53,4.53,0,0,1,1.43,3.68v7.56a2.82,2.82,0,0,1-2.24,3.13,2.61,2.61,0,0,1,2,.9,3.23,3.23,0,0,1,.73,2.18v8.4a5.44,5.44,0,0,1-1.06,3.63q-1.05,1.26-3.87,1.26H20.06Zm7.26,9.63a2.21,2.21,0,0,0,1.72-.52,2.31,2.31,0,0,0,.44-1.5V145.9a2.34,2.34,0,0,0-.4-1.47,2.06,2.06,0,0,0-1.67-.51H25.47v9.72Zm.35,14c1,0,1.56-.15,1.76-.44a3.13,3.13,0,0,0,.31-1.68v-6a2,2,0,0,0-2.29-2.16h-2v10.26Z" transform="translate(-0.6)"/><path class="cls-1" d="M38.76,139.87H51.21V144h-7v7h5.63v4.18H44.22v12.45h7v4.23H38.76Z" transform="translate(-0.6)"/><path class="cls-1" d="M57.15,144H54.56v-4.14h11.7l3.56,31.95H64.59L64.28,168H59.44l-.35,3.83H53.81Zm6.69,19.93-2-20.06-2,20.06Z" transform="translate(-0.6)"/><path class="cls-1" d="M72.73,144H70.92v-4.14H81.75a6.57,6.57,0,0,1,4,1.12,4.24,4.24,0,0,1,1.5,3.63v9.73a4.53,4.53,0,0,1-.84,2.9A3.09,3.09,0,0,1,84,158.4l4.44,13.42H82.54l-4.4-14.13v14.13H72.73Zm7.61,10.56c.82,0,1.33-.11,1.52-.33a2.11,2.11,0,0,0,.28-1.3v-7.13a2.34,2.34,0,0,0-.35-1.43c-.23-.31-.78-.46-1.63-.46h-2v10.65Z" transform="translate(-0.6)"/><path class="cls-1" d="M91.65,144H89.84v-4.14h10.83a6.57,6.57,0,0,1,4,1.12,4.24,4.24,0,0,1,1.5,3.63v9.73a4.53,4.53,0,0,1-.84,2.9A3.09,3.09,0,0,1,103,158.4l4.44,13.42h-5.94l-4.4-14.13v14.13H91.65Zm7.61,10.56c.82,0,1.33-.11,1.52-.33a2.11,2.11,0,0,0,.28-1.3v-7.13a2.34,2.34,0,0,0-.35-1.43c-.23-.31-.78-.46-1.63-.46h-2v10.65Z" transform="translate(-0.6)"/><path class="cls-1" d="M113.73,171.82a12,12,0,0,1-2-.14,2,2,0,0,1-1.82-1.71,8.78,8.78,0,0,1-.18-2V143.7a8.78,8.78,0,0,1,.18-2,2.26,2.26,0,0,1,.61-1.17,2.31,2.31,0,0,1,1.21-.55,13.34,13.34,0,0,1,2-.13h6.82a13.79,13.79,0,0,1,2,.13,2.41,2.41,0,0,1,1.25.55,2.22,2.22,0,0,1,.64,1.17,8.78,8.78,0,0,1,.18,2V168a10,10,0,0,1-.16,1.93,2.23,2.23,0,0,1-.57,1.17,2.2,2.2,0,0,1-1.14.57,9.83,9.83,0,0,1-1.92.16Zm4.23-4a1.83,1.83,0,0,0,1.08-.2,1.81,1.81,0,0,0,.19-1.08V145.11A1.81,1.81,0,0,0,119,144a1.83,1.83,0,0,0-1.08-.2h-1.58a1.78,1.78,0,0,0-1.08.2c-.14.13-.2.49-.2,1.08v21.47c0,.59.06.95.2,1.08a1.78,1.78,0,0,0,1.08.2Z" transform="translate(-0.6)"/><path class="cls-1" d="M127.33,139.87h5.55l2.15,23.5,2.9-23.54h4l2.9,23.54,2.16-23.5h5.54l-4.62,31.95h-5.67l-2.34-19.45-2.28,19.45H132Z" transform="translate(-0.6)"/><path class="cls-1" d="M155.31,139.87h5.5v31.95h-5.5Z" transform="translate(-0.6)"/><path class="cls-1" d="M165.13,144h-1.81v-4.14h7.22l5,15.8v-15.8H181v31.95h-4.54l-5.89-17.91v17.91h-5.41Z" transform="translate(-0.6)"/><path class="cls-1" d="M194.3,171.82H190a12.9,12.9,0,0,1-2.25-.18A4.8,4.8,0,0,1,186,171a3.15,3.15,0,0,1-1.12-1.25,4.62,4.62,0,0,1-.39-2V144c0-1.62.45-2.71,1.36-3.28a7.22,7.22,0,0,1,3.83-.86h9.15V144H192a3.25,3.25,0,0,0-1.7.28c-.25.19-.37.63-.37,1.3v20.68a3.93,3.93,0,0,0,.06.77.65.65,0,0,0,.29.42,1.22,1.22,0,0,0,.59.15c.25,0,.6,0,1,0H194v-12.5h-1.58V151h7V171l-5.1,1.81Z" transform="translate(-0.6)"/><path class="cls-1" d="M2.54,191.33a3.17,3.17,0,0,0,1.08-.2l.14.45a2.13,2.13,0,0,1-.6.18,5,5,0,0,1-.62.05h0a1.68,1.68,0,0,1-1.57-.68A2.44,2.44,0,0,1,.63,190c0-.23,0-.47,0-.73s0-.52,0-.75a5.86,5.86,0,0,1,.09-.66,1.94,1.94,0,0,1,.19-.53,1.32,1.32,0,0,1,.34-.4,2,2,0,0,1,1.24-.33,4.8,4.8,0,0,1,.85.06l.43.11-.14.52a3.73,3.73,0,0,0-1.1-.22,1.79,1.79,0,0,0-.7.11.78.78,0,0,0-.39.37,3.83,3.83,0,0,0-.24,1.65v.25a2.79,2.79,0,0,0,.26,1.4,1.19,1.19,0,0,0,1.06.44Z" transform="translate(-0.6)"/><path class="cls-1" d="M10.67,188.3a1.27,1.27,0,0,0-.86.42v3H9.26v-3.92h.49l.05.52a1.34,1.34,0,0,1,.33-.37,1,1,0,0,1,.3-.17,1.15,1.15,0,0,1,.31,0,1.48,1.48,0,0,1,.37.06l0,.52A1.51,1.51,0,0,0,10.67,188.3Z" transform="translate(-0.6)"/><path class="cls-1" d="M16.59,192.69a1.12,1.12,0,0,0,.39.08h.2l.1,0a.34.34,0,0,0,.17-.2,6.43,6.43,0,0,0,.24-.74l-1.51-4h.61l1,2.89.16.51.14-.51.9-2.89h.57l-1.65,4.85a.79.79,0,0,1-.84.57,1.48,1.48,0,0,1-.65-.12Z" transform="translate(-0.6)"/><path class="cls-1" d="M25.73,191.51v1.73h-.55v-5.42h.44l.07.41a2.42,2.42,0,0,1,1-.43,2.49,2.49,0,0,1,.49,0,1.31,1.31,0,0,1,.46.07A.86.86,0,0,1,28,188a.84.84,0,0,1,.2.29,1.52,1.52,0,0,1,.11.38,5.8,5.8,0,0,1,.05.88v.07a8.1,8.1,0,0,1-.05,1.07,3,3,0,0,1-.14.49,1,1,0,0,1-.24.33,1.46,1.46,0,0,1-1,.28A2.49,2.49,0,0,1,25.73,191.51Zm0-.45a2.77,2.77,0,0,0,1.17.25.93.93,0,0,0,.59-.15c.17-.13.26-.45.28-.95,0-.16,0-.35,0-.56v-.08a2.72,2.72,0,0,0-.13-1,.62.62,0,0,0-.62-.29H27a2.4,2.4,0,0,0-1,.24,1,1,0,0,0-.25.14Z" transform="translate(-0.6)"/><path class="cls-1" d="M36.22,191.55a2.36,2.36,0,0,1-1,.26.82.82,0,0,1-.94-.71c0-.11,0-.27,0-.49v-2.33h-.48v-.4l.48-.06.08-.89h.46v.89H36v.46H34.81v2.32a1.36,1.36,0,0,0,.06.52.44.44,0,0,0,.43.21,1.71,1.71,0,0,0,.73-.2Z" transform="translate(-0.6)"/><path class="cls-1" d="M41.59,189.79a5,5,0,0,1,.07-1,1.39,1.39,0,0,1,.19-.47.84.84,0,0,1,.3-.29,2.07,2.07,0,0,1,1.1-.23c.71,0,1.17.17,1.37.52a2,2,0,0,1,.21.89c0,.18,0,.39,0,.6a6,6,0,0,1,0,.62,2.48,2.48,0,0,1-.08.51,1.46,1.46,0,0,1-.17.4,1,1,0,0,1-.3.28,2,2,0,0,1-1.06.23c-.69,0-1.15-.17-1.36-.52a1.78,1.78,0,0,1-.24-.89C41.59,190.21,41.59,190,41.59,189.79Zm.89,1.37a.83.83,0,0,0,.3.14,2.13,2.13,0,0,0,.49,0,1.31,1.31,0,0,0,.52-.09.59.59,0,0,0,.32-.28,1.35,1.35,0,0,0,.14-.51c0-.21,0-.45,0-.73a6.73,6.73,0,0,0,0-.69,1.4,1.4,0,0,0-.12-.46c-.13-.23-.43-.35-.88-.35a1,1,0,0,0-.94.35,1.19,1.19,0,0,0-.14.46,5.79,5.79,0,0,0,0,.61c0,.22,0,.41,0,.56s0,.29,0,.41a1.33,1.33,0,0,0,.11.32A.49.49,0,0,0,42.48,191.16Z" transform="translate(-0.6)"/><path class="cls-1" d="M60.19,188c0,.68-.26,1-.77,1.12h0a1.05,1.05,0,0,1,.71.27,1.09,1.09,0,0,1,.27.8,2.25,2.25,0,0,1-.12.82,1,1,0,0,1-.34.45,1.84,1.84,0,0,1-1.14.28H57.11v-5c.61-.06,1.11-.09,1.51-.09a3.11,3.11,0,0,1,.87.09.94.94,0,0,1,.43.27A1.48,1.48,0,0,1,60.19,188Zm-1.78,1a1.6,1.6,0,0,0,.92-.19.89.89,0,0,0,.29-.78v-.07a.86.86,0,0,0-.19-.63,1,1,0,0,0-.66-.18H58.1l-.43,0V189Zm.46,2.32a1.06,1.06,0,0,0,.69-.18,1.12,1.12,0,0,0,.26-.84c0-.46-.17-.74-.51-.81a1.27,1.27,0,0,0-.34,0h-1.3v1.87Z" transform="translate(-0.6)"/><path class="cls-1" d="M66,189.79a4.77,4.77,0,0,1,.08-1,1.39,1.39,0,0,1,.19-.47.89.89,0,0,1,.29-.29,2.09,2.09,0,0,1,1.11-.23c.71,0,1.17.17,1.37.52a2,2,0,0,1,.21.89v.6a6.12,6.12,0,0,1,0,.62,2.48,2.48,0,0,1-.08.51,1.22,1.22,0,0,1-.18.4.86.86,0,0,1-.29.28,2,2,0,0,1-1.06.23,1.51,1.51,0,0,1-1.37-.52,1.89,1.89,0,0,1-.23-.89C66.05,190.21,66,190,66,189.79Zm.9,1.37a.83.83,0,0,0,.3.14,2.13,2.13,0,0,0,.49,0,1.31,1.31,0,0,0,.52-.09.63.63,0,0,0,.32-.28,1.35,1.35,0,0,0,.14-.51c0-.21,0-.45,0-.73a6.73,6.73,0,0,0,0-.69,1.4,1.4,0,0,0-.12-.46c-.13-.23-.43-.35-.88-.35s-.8.12-.94.35a1.19,1.19,0,0,0-.14.46,5.79,5.79,0,0,0,0,.61c0,.22,0,.41,0,.56s0,.29,0,.41a2,2,0,0,0,.1.32A.59.59,0,0,0,66.94,191.16Z" transform="translate(-0.6)"/><path class="cls-1" d="M76.65,188.3a1.29,1.29,0,0,0-.86.42v3h-.54v-3.92h.48l0,.52a1.52,1.52,0,0,1,.33-.37,1,1,0,0,1,.3-.17,1.15,1.15,0,0,1,.31,0,1.41,1.41,0,0,1,.37.06l0,.52A1.51,1.51,0,0,0,76.65,188.3Z" transform="translate(-0.6)"/><path class="cls-1" d="M84.06,188.3a1.25,1.25,0,0,0-.85.42v3h-.55v-3.92h.48l0,.52a1.36,1.36,0,0,1,.34-.37.92.92,0,0,1,.29-.17,1.15,1.15,0,0,1,.31,0,1.41,1.41,0,0,1,.37.06l0,.52A1.64,1.64,0,0,0,84.06,188.3Z" transform="translate(-0.6)"/><path class="cls-1" d="M90,189.79a4.77,4.77,0,0,1,.08-1,1.39,1.39,0,0,1,.19-.47.89.89,0,0,1,.29-.29,2.09,2.09,0,0,1,1.11-.23c.71,0,1.16.17,1.37.52a1.92,1.92,0,0,1,.2.89c0,.18,0,.39,0,.6a6.12,6.12,0,0,1,0,.62,2.48,2.48,0,0,1-.08.51,1.22,1.22,0,0,1-.18.4.86.86,0,0,1-.29.28,2,2,0,0,1-1.06.23,1.51,1.51,0,0,1-1.37-.52,1.89,1.89,0,0,1-.23-.89C90,190.21,90,190,90,189.79Zm.9,1.37a.83.83,0,0,0,.3.14,2.13,2.13,0,0,0,.49,0,1.31,1.31,0,0,0,.52-.09.63.63,0,0,0,.32-.28,1.35,1.35,0,0,0,.14-.51c0-.21,0-.45,0-.73s0-.5,0-.69a1.4,1.4,0,0,0-.12-.46,1,1,0,0,0-.88-.35c-.48,0-.8.12-.94.35a1.19,1.19,0,0,0-.14.46,5.79,5.79,0,0,0,0,.61c0,.22,0,.41,0,.56a2.48,2.48,0,0,0,0,.41,1.34,1.34,0,0,0,.1.32A.59.59,0,0,0,90.85,191.16Z" transform="translate(-0.6)"/><path class="cls-1" d="M98.73,187.82h.58l.83,2.88.15.63.11-.53.86-3h.54l.84,2.88.15.64.1-.54.82-3h.59l-1.16,3.92h-.72l-.75-2.51-.15-.77-.14.77-.75,2.51H100Z" transform="translate(-0.6)"/><path class="cls-1" d="M110.32,186.88a.42.42,0,0,1-.28-.06.37.37,0,0,1-.1-.28,1.42,1.42,0,0,1,0-.26.35.35,0,0,1,.07-.12.33.33,0,0,1,.24-.08l.23,0a.23.23,0,0,1,.12.06.38.38,0,0,1,.08.26,1.42,1.42,0,0,1,0,.26.23.23,0,0,1-.06.12A.42.42,0,0,1,110.32,186.88Zm-.27.94h.54v3.92h-.53Z" transform="translate(-0.6)"/><path class="cls-1" d="M118.63,188.27a2.68,2.68,0,0,0-1.31.38v3.09h-.54v-3.92h.48l0,.41a2.1,2.1,0,0,1,.89-.42,2.44,2.44,0,0,1,1,0,.81.81,0,0,1,.36.22,1.48,1.48,0,0,1,.24,1v2.73h-.56v-2.63a1.32,1.32,0,0,0-.09-.61.42.42,0,0,0-.22-.18A1,1,0,0,0,118.63,188.27Z" transform="translate(-0.6)"/><path class="cls-1" d="M128.37,191.37a2.3,2.3,0,0,1-1.33.44,1.09,1.09,0,0,1-1.09-.59,2,2,0,0,1-.18-.83c0-.15,0-.32,0-.51v-.56a4.07,4.07,0,0,1,0-.52,1.89,1.89,0,0,1,.12-.44.87.87,0,0,1,.22-.32,1.3,1.3,0,0,1,.92-.28,3.14,3.14,0,0,1,1.33.33l.05-.27h.48v3.85a1.88,1.88,0,0,1-.33,1.23,1.54,1.54,0,0,1-1.2.41,3.51,3.51,0,0,1-1.17-.18,1,1,0,0,1-.2-.08l.17-.46.18.06.27.09a3,3,0,0,0,.75.11,1.78,1.78,0,0,0,.53-.07.62.62,0,0,0,.28-.22,1.55,1.55,0,0,0,.17-.88Zm0-2.82a2.49,2.49,0,0,0-1.14-.3,1.21,1.21,0,0,0-.53.07.48.48,0,0,0-.2.17,1,1,0,0,0-.11.29,6.14,6.14,0,0,0-.07,1.14V190a2.05,2.05,0,0,0,.18,1,.71.71,0,0,0,.66.3h0a2,2,0,0,0,.93-.25,1,1,0,0,0,.23-.14Z" transform="translate(-0.6)"/><path class="cls-1" d="M143.75,190.26h-2l-.47,1.48h-.58l1.65-5h.76l1.77,5h-.6Zm-1.88-.47h1.72l-.89-2.64-.1.37Z" transform="translate(-0.6)"/><path class="cls-1" d="M152.84,191.37a2.32,2.32,0,0,1-1.33.44,1.09,1.09,0,0,1-1.1-.59,2.32,2.32,0,0,1-.18-.83c0-.15,0-.32,0-.51v-.56c0-.19,0-.36,0-.52a2.55,2.55,0,0,1,.12-.44.87.87,0,0,1,.22-.32,1.3,1.3,0,0,1,.92-.28,3.14,3.14,0,0,1,1.33.33l.06-.27h.47v3.85a1.88,1.88,0,0,1-.33,1.23,1.54,1.54,0,0,1-1.2.41,3.51,3.51,0,0,1-1.17-.18l-.2-.08.17-.46.18.06.27.09a3.16,3.16,0,0,0,.75.11,1.78,1.78,0,0,0,.53-.07.57.57,0,0,0,.28-.22,1.54,1.54,0,0,0,.18-.88Zm0-2.82a2.56,2.56,0,0,0-1.15-.3,1.24,1.24,0,0,0-.53.07.48.48,0,0,0-.2.17,1,1,0,0,0-.11.29,6.14,6.14,0,0,0-.07,1.14V190a2.05,2.05,0,0,0,.18,1,.71.71,0,0,0,.66.3h0a2,2,0,0,0,.93-.25,1.38,1.38,0,0,0,.24-.14Z" transform="translate(-0.6)"/><path class="cls-1" d="M161.93,191.37a2.32,2.32,0,0,1-1.33.44,1.1,1.1,0,0,1-1.1-.59,2.32,2.32,0,0,1-.18-.83c0-.15,0-.32,0-.51v-.56c0-.19,0-.36,0-.52a2.55,2.55,0,0,1,.12-.44.87.87,0,0,1,.22-.32,1.3,1.3,0,0,1,.92-.28,3.14,3.14,0,0,1,1.33.33l.06-.27h.47v3.85a1.88,1.88,0,0,1-.33,1.23,1.54,1.54,0,0,1-1.2.41,3.51,3.51,0,0,1-1.17-.18l-.2-.08.17-.46.18.06.27.09a3.16,3.16,0,0,0,.75.11,1.74,1.74,0,0,0,.53-.07.57.57,0,0,0,.28-.22,1.54,1.54,0,0,0,.18-.88Zm0-2.82a2.56,2.56,0,0,0-1.15-.3,1.24,1.24,0,0,0-.53.07.55.55,0,0,0-.2.17,1,1,0,0,0-.11.29,6.14,6.14,0,0,0-.07,1.14V190a2.05,2.05,0,0,0,.18,1,.71.71,0,0,0,.66.3h0a2,2,0,0,0,.93-.25,1.38,1.38,0,0,0,.24-.14Z" transform="translate(-0.6)"/><path class="cls-1" d="M169.92,188.3a1.27,1.27,0,0,0-.86.42v3h-.55v-3.92H169l0,.52a1.54,1.54,0,0,1,.34-.37,1,1,0,0,1,.29-.17,1.22,1.22,0,0,1,.32,0,1.55,1.55,0,0,1,.37.06l-.05.52A1.51,1.51,0,0,0,169.92,188.3Z" transform="translate(-0.6)"/><path class="cls-1" d="M179,191.53a3.85,3.85,0,0,1-1.5.28,3.08,3.08,0,0,1-.81-.1,1,1,0,0,1-.71-.63,4,4,0,0,1-.16-1.31v-.17a2,2,0,0,1,.43-1.47,1.88,1.88,0,0,1,1.31-.37,1.41,1.41,0,0,1,1.22.44,1.06,1.06,0,0,1,.21.52,3.9,3.9,0,0,1,.05.58c0,.28,0,.51,0,.67l-.83,0h-.53a8.12,8.12,0,0,1-1.28-.08,2.07,2.07,0,0,0,.19,1.06,1,1,0,0,0,.93.37,3.42,3.42,0,0,0,1.34-.28Zm-.52-2v-.32a1.07,1.07,0,0,0-.2-.74,1,1,0,0,0-.77-.24,1.14,1.14,0,0,0-.9.28,1.68,1.68,0,0,0-.23,1Z" transform="translate(-0.6)"/><path class="cls-1" d="M187.52,191.37a2.32,2.32,0,0,1-1.33.44,1.1,1.1,0,0,1-1.1-.59,2.32,2.32,0,0,1-.18-.83c0-.15,0-.32,0-.51v-.56a4,4,0,0,1,0-.52,1.89,1.89,0,0,1,.11-.44.87.87,0,0,1,.22-.32,1.31,1.31,0,0,1,.93-.28,3.13,3.13,0,0,1,1.32.33l.06-.27h.47v3.85a1.88,1.88,0,0,1-.33,1.23,1.54,1.54,0,0,1-1.2.41,3.51,3.51,0,0,1-1.17-.18l-.2-.08.17-.46.18.06.28.09a3,3,0,0,0,.74.11,1.74,1.74,0,0,0,.53-.07.64.64,0,0,0,.29-.22,1.64,1.64,0,0,0,.17-.88Zm0-2.82a2.56,2.56,0,0,0-1.15-.3,1.24,1.24,0,0,0-.53.07.45.45,0,0,0-.19.17.65.65,0,0,0-.11.29,5.2,5.2,0,0,0-.08,1.14V190a2.05,2.05,0,0,0,.18,1,.71.71,0,0,0,.66.3h0a2,2,0,0,0,.93-.25,1.38,1.38,0,0,0,.24-.14Z" transform="translate(-0.6)"/><path class="cls-1" d="M197.1,190.35a12.78,12.78,0,0,0,.07,1.36l-.49,0-.09-.45a2.37,2.37,0,0,1-1.1.46,2.08,2.08,0,0,1-.4.05l-.31,0a1,1,0,0,1-.25-.06.88.88,0,0,1-.23-.14.84.84,0,0,1-.19-.22,1.47,1.47,0,0,1-.17-.72A2.85,2.85,0,0,1,194,190a.94.94,0,0,1,.21-.38,1.2,1.2,0,0,1,.94-.31,4.38,4.38,0,0,1,1.41.25v-.43c0-.47-.19-.76-.59-.84a1.81,1.81,0,0,0-.43-.05,3.33,3.33,0,0,0-1.17.23l-.13-.48a2.78,2.78,0,0,1,.86-.2l.52,0a2.4,2.4,0,0,1,.6.07,1.18,1.18,0,0,1,.49.24,1.29,1.29,0,0,1,.39,1.05Zm-.55-.39a5.79,5.79,0,0,0-1.42-.19.58.58,0,0,0-.54.23,1,1,0,0,0-.09.48,2.15,2.15,0,0,0,0,.45.53.53,0,0,0,.11.24.7.7,0,0,0,.51.17,2.4,2.4,0,0,0,1.11-.28,1.57,1.57,0,0,0,.3-.2C196.56,190.63,196.55,190.33,196.55,190Z" transform="translate(-0.6)"/><path class="cls-1" d="M205.12,191.55a2.36,2.36,0,0,1-1,.26c-.55,0-.86-.24-.93-.71a2.93,2.93,0,0,1,0-.49v-2.33h-.47v-.4l.47-.06.09-.89h.45v.89h1.15v.46h-1.15v2.32a1.36,1.36,0,0,0,.06.52.46.46,0,0,0,.44.21,1.75,1.75,0,0,0,.73-.2Z" transform="translate(-0.6)"/><path class="cls-1" d="M210.49,189.79a5,5,0,0,1,.07-1,1.63,1.63,0,0,1,.19-.47.84.84,0,0,1,.3-.29,2.09,2.09,0,0,1,1.11-.23c.7,0,1.16.17,1.36.52a2,2,0,0,1,.21.89c0,.18,0,.39,0,.6s0,.43,0,.62a3.35,3.35,0,0,1-.09.51,1.46,1.46,0,0,1-.17.4.9.9,0,0,1-.3.28,2,2,0,0,1-1.06.23,1.49,1.49,0,0,1-1.36-.52,1.89,1.89,0,0,1-.24-.89C210.49,190.21,210.49,190,210.49,189.79Zm.89,1.37a.83.83,0,0,0,.3.14,2.13,2.13,0,0,0,.49,0,1.4,1.4,0,0,0,.53-.09A.67.67,0,0,0,213,191a1.35,1.35,0,0,0,.13-.51c0-.21,0-.45,0-.73a6.73,6.73,0,0,0,0-.69,1,1,0,0,0-.12-.46c-.13-.23-.42-.35-.88-.35a1,1,0,0,0-.94.35,1.19,1.19,0,0,0-.14.46,5.79,5.79,0,0,0,0,.61c0,.22,0,.41,0,.56a2.42,2.42,0,0,0,0,.41,1,1,0,0,0,.1.32A.49.49,0,0,0,211.38,191.16Z" transform="translate(-0.6)"/><path class="cls-1" d="M221.1,188.3a1.27,1.27,0,0,0-.86.42v3h-.55v-3.92h.48l.05.52a1.54,1.54,0,0,1,.34-.37,1,1,0,0,1,.29-.17,1.22,1.22,0,0,1,.32,0,1.48,1.48,0,0,1,.37.06l0,.52A1.51,1.51,0,0,0,221.1,188.3Z" transform="translate(-0.6)"/><g id="bear"><path class="cls-1" d="M107.59,131.11a85.71,85.71,0,0,1-55.85-20.9l-5.37,3.49v-3.5l-5.5,4.5c0-.65.83-19.5,2.24-31.58A150.94,150.94,0,0,1,51.33,49.8c.34-.91.66-1.8,1-2.67a38,38,0,0,1-7.17-6.34C41.11,36,42,25.53,42.27,22.42A43,43,0,0,1,43,18s3,1.75,4.26.92-2.35-5.14-2.35-5.14C45.78,12.18,50.35,3.85,56,1.84A33.32,33.32,0,0,1,66.92,0C72.81,0,78.17,1.56,82,4.4a15.28,15.28,0,0,1,4.48,6.29A60.55,60.55,0,0,1,103.36,7.9c.63,0,1.76-.08,2.55-.08a94.57,94.57,0,0,1,24.83,4.34c4-5.8,5.7-7.39,6.21-7.79,3.46-2.75,10.45-3.7,15.59-3.7A26.17,26.17,0,0,1,161,1.86c7.58,2.8,15.74,11.71,15.74,24.67,0,6.29-.47,12.78-6.15,16.91-2.1,1.53-4.18,2.87-6,4,.59,1.42,1.16,2.89,1.72,4.39a160.23,160.23,0,0,1,8.33,33.83c1.72,12.11,2.22,28,2.26,28.57l-5.17-3.79-.17,4.17-4-3.34C157.38,123.33,138.8,129.87,111.2,131,110,131.08,108.79,131.11,107.59,131.11Z" transform="translate(-0.6)"/><path class="cls-1" d="M173.37,109.43s-.94-13.43-2.73-23.29c-.67-8.57-3.17-19.68-8.11-32.94-1-2.68-2-5.16-3-7.46a87.77,87.77,0,0,0,8.7-5.54c3.67-2.67,4.5-6.66,4.5-13.67,0-11.16-7-18.67-13.13-20.91-5.2-1.92-17.08-.74-20.54,1.91-1.62,1.25-5.1,6.42-6.76,8.94A81.25,81.25,0,0,0,104,11.87c-5.29.31-12.24.63-19.89,4-.87-2.76-2.42-6.71-4.52-8.26-5.21-3.86-14.3-4.8-22.25-2-4.5,1.58-8.84,9.75-8.84,9.75A8.42,8.42,0,0,1,52.62,18c1.41,1.83-1.5,1.67-1.5,1.67s1.83,6.83.33,6.83-5.21-3.58-5.21-3.58S45,34.38,48.2,38.2a37.59,37.59,0,0,0,9.06,7.38Q56.17,48.19,55,51.2c-3.55,9.51-7,22-8,32.54-2.1,9.9-3.2,25.69-3.2,25.69A24.88,24.88,0,0,1,47,104.26l.7-.72c.1,2.54.29,4.16.29,4.16l4-2.51c8.15,8,29.39,23.08,59,21.84,39.51-1.65,50.94-14.45,55.38-21l2.71,1.69s.2-1.62.29-4.16l.71.72A25.34,25.34,0,0,1,173.37,109.43Z" transform="translate(-0.6)"/><path class="cls-2" d="M60.53,40.2s-8.33,0-11.66-5.66c-1.82-3.1-1-8.51-1-8.51S51.53,29,53,27.7,52.37,21,52.37,21s2.43-.33,2.33-2c-.17-2.67-4.5-4.67-4.5-4.67A16,16,0,0,1,63.53,5.7c18-1.5,19,12.17,19,12.17A72.56,72.56,0,0,1,107.2,14.2a83.66,83.66,0,0,1,26.5,5.5s3.14-8,7.5-10.83c4.83-3.17,14.17-4.34,21.17.33s12,16.33,6.83,25.5-13.5,7.84-13.5,7.84,13.5,30.16,12.67,47.83-19.17,28.17-28.17,30.5-42.95,9.61-71.33-6.67C47.37,101.87,47.87,91.37,52.2,69S60.53,40.2,60.53,40.2Z" transform="translate(-0.6)"/><path class="cls-3" d="M86.87,121.24c-1.23-.4-13.38-21.37-13-26.5s8.75-20.25,15.62-22.12,31.25-3.38,38.13-.75,17.62,17.37,17.87,22.37-6.75,23.5-9.25,25.88S97.12,124.62,86.87,121.24Z" transform="translate(-0.6)"/><path class="cls-1" d="M97.87,79.2A44.73,44.73,0,0,1,103,77.7c1.34-.17,5.5-.5,5.5-.5l-2.83,8Z" transform="translate(-0.6)"/><path d="M162.53,53.2c-7.69-20.66-16.33-29.88-26.33-35C126,13,109.92,11.52,104,11.87c-6.37.37-15.16.75-24.66,6.5S63.2,29.37,55,51.2c-6.34,17-12.26,43.24-5.16,51.67C55.7,109.79,78.23,128.41,111,127c45.93-1.92,53.92-18.91,57.09-23.66C172.54,96.74,172.16,79.05,162.53,53.2Zm-23.79,64.42c-11.87,3.5-34,6.08-50.62,1.25C68.89,113.26,55.7,101.2,53.37,97c-3.63-6.48.26-34.7,11.83-58.5,8.67-17.83,28.29-21.79,40.17-22.16,9.24-.29,37,.66,48.66,28.33,5.73,13.58,15.13,42.17,11.17,51.67C162.7,102.37,152.66,113.51,138.74,117.62Z" transform="translate(-0.6)"/><path d="M80.37,20.45s-.5-8.21-5.17-10.83c-7.7-4.34-17.7-1-19.33-.09-1.88,1.09-4,4.46-4,4.46s3.5,1.88,3.66,4.79a3.08,3.08,0,0,1-2,2.92s2.17,4.5.5,7c-1.43,2.15-5.25-.5-5.25-.5s-.26,4.68,2.92,6.67C57.7,38.62,62.45,38,62.45,38L60.2,47.2s-7.33-3.5-12-9c-3.24-3.82-2-15.33-2-15.33s3.71,3.58,5.21,3.58-.33-6.83-.33-6.83,2.91.16,1.5-1.67a8.42,8.42,0,0,0-4.09-2.58s4.34-8.17,8.84-9.75c7.95-2.8,17-1.86,22.25,2C83,10.12,85,18.78,85,18.78Z" transform="translate(-0.6)"/><path d="M76.12,48.49l-6,7.63,7.25,2.62.5,3,7.37,3.5-8.87,6.13,2,1.12s9.37-2.62,12.25-3.25,9.12-1.75,9.12-1.75L105,63l-.37-8.75-2.13,1.5-.75,5.75s-6.12-1.37-13.5-3.5-13.12-3.12-13.12-3.12l2.12-4.63Z" transform="translate(-0.6)"/><path d="M83.2,121.7s-12.07-21-12-25.5C71.37,85.53,83,72,89.53,70.7,99.6,68.63,125.41,68,133,72.53c5.34,3.17,15.34,17.67,14.34,23.17-2,11.18-8.84,24.33-8.84,24.33l-6.16,1.5S143.2,103.87,143.2,94.7c0-5.6-11.33-19.83-15.83-21.17-6.75-2-29.3-1.27-34-.33-3.34.67-4.5-.17-10.17,7-3.41,4.32-7.67,11-7.5,14.67.35,7.66,14,27.16,14,27.16Z" transform="translate(-0.6)"/><polygon points="106.43 89.2 106.27 102.87 110.1 101.37 110.27 89.31 106.43 89.2"/><path d="M99.62,109.62l2-1.19s0-1.69.68-1.94c2-.73,24.23-9.54,26.07-10,.91-.25,1.5-.65,2.25.42.43.61,1.87,3.18,1.87,3.18l2.31-.18s-3.1-8.67-4.6-8.17-16.5,6.67-21.17,8.83-7.56,3.55-8.73,4.21C99.43,105.24,99.62,109.62,99.62,109.62Z" transform="translate(-0.6)"/><path d="M118.83,104.41s3.33-2.63,4.85-3,4.48,2.22,4.48,2.22l-2.41.31s-1.91-.65-3-.06-3.89,2.08-3.89,2.08Z" transform="translate(-0.6)"/><path d="M72.18,25.24s2.3-3-1.31-7c-2.75-3-6.93-2.47-9.13-1.12-1.62,1-4,4.37-4,4.37A9.61,9.61,0,0,0,60.12,25a5.54,5.54,0,0,0,4.25,1s-.6,1.27-3.75,2.13a6.27,6.27,0,0,1-3.13-.25s-.62,3.62,6.63,5.12C68.36,33.87,72.18,25.24,72.18,25.24Z" transform="translate(-0.6)"/><path d="M136.57,20.45s2.4-8.88,6-10.58c7.67-3.67,15-2,17.17-.84s10.5,7.84,10,17.34c-.09,1.81-.5,7.5-4.83,9.5a28.46,28.46,0,0,1-10,2.5l1.87,8.83a87.19,87.19,0,0,0,11.46-7c3.67-2.67,4.5-6.66,4.5-13.67,0-11.16-7-18.67-13.13-20.91-5.2-1.92-17.08-.74-20.54,1.91-2.16,1.67-7.66,10.34-7.66,10.34Z" transform="translate(-0.6)"/><path d="M144.76,25.24S142.92,22,146.53,18c2.75-3,8.22-2.46,10.34-1a10.86,10.86,0,0,1,4.66,7.5,7.64,7.64,0,0,1-4.33,1.67,21.54,21.54,0,0,1-4.63-.21,8.59,8.59,0,0,0,4,3,8.25,8.25,0,0,0,3.67,0s-1,3.34-7.38,4C148.51,33.42,144.76,25.24,144.76,25.24Z" transform="translate(-0.6)"/><path d="M47.53,81.37c-2.45,9.5-3.74,28.06-3.74,28.06A24.88,24.88,0,0,1,47,104.26c1.55-1.58,2.79-2.91,2.79-2.91Z" transform="translate(-0.6)"/><path d="M49.19,87.62C46.74,97.12,48,107.7,48,107.7l5.34-3.33Z" transform="translate(-0.6)"/><path d="M169.62,81.37c2.45,9.5,3.75,28.06,3.75,28.06a25.34,25.34,0,0,0-3.25-5.17c-1.55-1.58-2.8-2.91-2.8-2.91Z" transform="translate(-0.6)"/><path d="M168,87.62c2.45,9.5,1.16,20.08,1.16,20.08l-5.33-3.33Z" transform="translate(-0.6)"/><path d="M105.2,123.2c5.5-1.5,8.33-7,8.33-7a7.65,7.65,0,0,1-.16,5.67C112,124.7,105.2,123.2,105.2,123.2Z" transform="translate(-0.6)"/><path d="M50.49,70.49a64.59,64.59,0,0,0,6.13,9.88c2.87,4,9.25,9.5,9.25,9.5l-.75-3a92,92,0,0,1-6.75-9.63C55.12,71.87,52,62.87,52,62.87Z" transform="translate(-0.6)"/><path d="M64,78.2S59.83,75,56.45,78c-3.08,2.75-1.62,8.13-1.62,8.13l1.08-1s.15-3.59,1.87-5.25A5,5,0,0,1,63,79Z" transform="translate(-0.6)"/><path d="M66,83.3a4.26,4.26,0,0,0-5.37.32c-2.23,2.06-.57,6.5-.57,6.5L61,89.05A4.84,4.84,0,0,1,61.93,85a2.56,2.56,0,0,1,3.12-.81Z" transform="translate(-0.6)"/><path d="M118.87,77.24a28.57,28.57,0,0,0-3.17-1.37L111.2,81,113,75.2a54.88,54.88,0,0,0-9.83.67,30.47,30.47,0,0,0-8.5,2.83s2.75,3.3,5.17,6.1a98.56,98.56,0,0,0,9,8.57s3.12-3.59,6.06-6.82c3.5-3.83,6.87-7.31,6.87-7.31A26.94,26.94,0,0,0,118.87,77.24Zm-14.13,6.63-4.62-4a33.77,33.77,0,0,1,3.39-1.12,29.66,29.66,0,0,1,3.8-.71Z" transform="translate(-0.6)"/><path d="M119.62,51a13.89,13.89,0,0,1,1.83-2.39A143.73,143.73,0,0,1,104.2,27.37a101.1,101.1,0,0,1-7-12.84l-6.5,1.34S95.57,24.58,104.2,37c2.46.94,6.17,2.13,6.17,2.13l-3.45,1.67A98.09,98.09,0,0,0,118,53.5C118.44,52.86,119,52,119.62,51Z" transform="translate(-0.6)"/><path d="M164.7,69.87a14.94,14.94,0,0,1-11-.34c-2.47-1-5.13-2.23-7.84-3.61-.22.72-.43,1.39-.62,1.88a15.92,15.92,0,0,1-1.93,3.35c1.75.85,3.5,1.65,5.22,2.38,13.57,5.77,17.34,1,17.34,1Z" transform="translate(-0.6)"/><path d="M128.53,72.53a31.5,31.5,0,0,0-7.5-1.16c-1.29,0-4.91.37-4.91.37-.27-.2-6.23-4.55-3-15.92,2.09-7.38,9.94-13,18.26-13A18.85,18.85,0,0,1,142,46.21c8.41,5.74,11,13.31,7.36,21.32a21.41,21.41,0,0,1-11,11l-.87.32S131.87,73.7,128.53,72.53Z" transform="translate(-0.6)"/><path class="cls-4" d="M118.5,69.82s-5.29-3.45-2.6-13c2.34-8.24,14.31-14.61,24.11-7.93s7.87,14,6.22,17.58a18.18,18.18,0,0,1-9.18,9.33s-5.38-3.72-8.53-4.68C125.75,70.31,118.5,69.82,118.5,69.82Z" transform="translate(-0.6)"/><path d="M118,62.12a11.52,11.52,0,0,1,7-11.51c10.11-4.51,19,2.49,19.75,8.86,1,8.28-4.35,10.42-4.35,10.42a9.7,9.7,0,0,0,3-10.89c-2.24-6.34-9.19-9-14.59-8.08A12.33,12.33,0,0,0,118,62.12Z" transform="translate(-0.6)"/><path id="path3078" class="cls-5" d="M129.64,59.44,125.73,64l6.35.61,3.6-5.27Z" transform="translate(-0.6)"/><path id="path3094" class="cls-6" d="M125.73,64l6.35.61-2.44-5.2-2.81-6Z" transform="translate(-0.6)"/><path id="path3110" class="cls-7" d="M126.83,53.45l2.81,6,2.44,5.2,3.6-5.27Z" transform="translate(-0.6)"/><path id="path3126" class="cls-6" d="M126.17,65l8.27,4.67-1.91-4.07Z" transform="translate(-0.6)"/><path id="path3142" class="cls-7" d="M132.53,65.58l1.91,4.07,1.68-9.34Z" transform="translate(-0.6)"/></g></g></g></svg>