<svg xmlns="http://www.w3.org/2000/svg" viewBox="0 0 511.21 131.11"><defs><style>.cls-1{fill:#fff;}.cls-2{fill:#aa9887;}.cls-3{fill:#ddccc0;}.cls-4{fill:#aecc7a;}.cls-5,.cls-6,.cls-7{fill:#010101;isolation:isolate;}.cls-5{opacity:0.6;}.cls-6{opacity:0.45;}.cls-7{opacity:0.8;}</style></defs><title>dark-theme-small-logo</title><g id="Ebene_2" data-name="Ebene 2"><g id="color_2" data-name="color 2"><g id="bear"><path class="cls-1" d="M66.72,131.11a85.74,85.74,0,0,1-55.85-20.9L5.5,113.7v-3.5L0,114.7c.05-.65.83-19.5,2.24-31.58A150.94,150.94,0,0,1,10.46,49.8c.34-.91.66-1.8,1-2.67a38.27,38.27,0,0,1-7.17-6.34C.25,36,1.08,25.53,1.4,22.42A41.59,41.59,0,0,1,2.16,18s3,1.75,4.26.92-2.36-5.14-2.36-5.14c.85-1.59,5.43-9.92,11.11-11.93A33.32,33.32,0,0,1,26.05,0C31.94,0,37.3,1.56,41.13,4.4a15.28,15.28,0,0,1,4.48,6.29A60.55,60.55,0,0,1,62.49,7.9c.64,0,1.76-.08,2.56-.08a94.57,94.57,0,0,1,24.83,4.34c4-5.8,5.7-7.39,6.2-7.79,3.46-2.75,10.45-3.7,15.59-3.7a26.14,26.14,0,0,1,8.42,1.19c7.58,2.8,15.74,11.71,15.74,24.67,0,6.29-.47,12.78-6.14,16.91-2.11,1.53-4.19,2.87-6,4,.58,1.42,1.16,2.89,1.72,4.39a161.47,161.47,0,0,1,8.33,33.83c1.71,12.11,2.21,28,2.25,28.57l-5.17-3.79-.16,4.17-4-3.34C116.52,123.33,97.93,129.87,70.33,131,69.13,131.08,67.92,131.11,66.72,131.11Z"/><path class="cls-1" d="M132.5,109.43s-.94-13.43-2.72-23.29c-.68-8.57-3.17-19.68-8.11-32.94-1-2.68-2-5.16-3-7.46a87.77,87.77,0,0,0,8.7-5.54c3.67-2.67,4.5-6.66,4.5-13.67,0-11.16-7-18.67-13.12-20.91-5.21-1.92-17.09-.74-20.54,1.91-1.62,1.25-5.11,6.42-6.76,8.94a81.32,81.32,0,0,0-28.24-4.6c-5.29.31-12.25.63-19.89,4-.87-2.76-2.43-6.71-4.53-8.26-5.21-3.86-14.29-4.8-22.25-2C12,7.2,7.67,15.37,7.67,15.37A8.41,8.41,0,0,1,11.75,18c1.42,1.83-1.5,1.67-1.5,1.67s1.83,6.83.33,6.83-5.2-3.58-5.2-3.58-1.29,11.51,2,15.33a37.59,37.59,0,0,0,9.06,7.38q-1.1,2.61-2.22,5.62c-3.56,9.51-7,22-8,32.54-2.1,9.9-3.2,25.69-3.2,25.69a24.88,24.88,0,0,1,3.25-5.17l.71-.72c.09,2.54.29,4.16.29,4.16l4-2.51c8.14,8,29.38,23.08,59,21.84,39.51-1.65,50.93-14.45,55.37-21l2.71,1.69s.2-1.62.3-4.16l.7.72A24.88,24.88,0,0,1,132.5,109.43Z"/><path class="cls-2" d="M19.67,40.2S11.33,40.2,8,34.54C6.18,31.44,7,26,7,26s3.67,3,5.17,1.67S11.5,21,11.5,21s2.44-.33,2.33-2c-.16-2.67-4.5-4.67-4.5-4.67A16,16,0,0,1,22.67,5.7c18-1.5,19,12.17,19,12.17A72.47,72.47,0,0,1,66.33,14.2a83.66,83.66,0,0,1,26.5,5.5s3.14-8,7.5-10.83c4.84-3.17,14.17-4.34,21.17.33s12,16.33,6.83,25.5-13.5,7.84-13.5,7.84,13.5,30.16,12.67,47.83-19.17,28.17-28.17,30.5S56.39,130.48,28,114.2C6.5,101.87,7,91.37,11.33,69S19.67,40.2,19.67,40.2Z"/><path class="cls-3" d="M46,121.24c-1.22-.4-13.38-21.37-13-26.5s8.75-20.25,15.62-22.12,31.26-3.38,38.13-.75,17.63,17.37,17.87,22.37-6.74,23.5-9.24,25.88S56.25,124.62,46,121.24Z"/><path class="cls-1" d="M57,79.2a44.43,44.43,0,0,1,5.17-1.5c1.33-.17,5.5-.5,5.5-.5l-2.84,8Z"/><path d="M121.67,53.2c-7.7-20.66-16.34-29.88-26.34-35C85.08,13,69.05,11.52,63.17,11.87c-6.38.37-15.17.75-24.67,6.5s-16.17,11-24.33,32.83C7.82,68.16,1.91,94.44,9,102.87c5.83,6.92,28.37,25.54,61.17,24.16,45.92-1.92,53.91-18.91,57.08-23.66C131.67,96.74,131.29,79.05,121.67,53.2ZM97.88,117.62c-11.88,3.5-34,6.08-50.63,1.25C28,113.26,14.83,101.2,12.5,97c-3.63-6.48.27-34.7,11.83-58.5C33,20.7,52.62,16.74,64.5,16.37c9.25-.29,37,.66,48.67,28.33,5.72,13.58,15.12,42.17,11.16,51.67C121.83,102.37,111.8,113.51,97.88,117.62Z"/><path d="M39.5,20.45S39,12.24,34.33,9.62c-7.7-4.34-17.69-1-19.33-.09C13.12,10.62,11,14,11,14s3.5,1.88,3.67,4.79a3.09,3.09,0,0,1-2,2.92s2.16,4.5.5,7c-1.44,2.15-5.25-.5-5.25-.5s-.26,4.68,2.91,6.67c6,3.75,10.75,3.16,10.75,3.16L19.33,47.2s-7.33-3.5-12-9C4.09,34.38,5.38,22.87,5.38,22.87s3.7,3.58,5.2,3.58-.33-6.83-.33-6.83,2.92.16,1.5-1.67a8.41,8.41,0,0,0-4.08-2.58S12,7.2,16.5,5.62c8-2.8,17-1.86,22.25,2,3.37,2.5,5.33,11.16,5.33,11.16Z"/><path d="M35.25,48.49l-6,7.63,7.25,2.62.5,3,7.38,3.5L35.5,71.37l2,1.12s9.38-2.62,12.25-3.25,9.13-1.75,9.13-1.75L64.12,63l-.37-8.75-2.13,1.5-.74,5.75s-6.13-1.37-13.5-3.5-13.13-3.12-13.13-3.12l2.13-4.63Z"/><path d="M42.33,121.7s-12.07-21-12-25.5C30.5,85.53,42.17,72,48.67,70.7c10.06-2.07,35.87-2.69,43.5,1.83C97.5,75.7,107.5,90.2,106.5,95.7c-2,11.18-8.83,24.33-8.83,24.33l-6.17,1.5s10.83-17.66,10.83-26.83c0-5.6-11.33-19.83-15.83-21.17-6.74-2-29.29-1.27-34-.33-3.33.67-4.5-.17-10.17,7-3.41,4.32-7.66,11-7.5,14.67.35,7.66,14,27.16,14,27.16Z"/><polygon points="66.17 89.2 66 102.87 69.83 101.37 70 89.31 66.17 89.2"/><path d="M58.75,109.62l2-1.19s0-1.69.69-1.94c2-.73,24.23-9.54,26.06-10,.92-.25,1.5-.65,2.25.42.44.61,1.87,3.18,1.87,3.18l2.32-.18s-3.11-8.67-4.61-8.17-16.5,6.67-21.16,8.83-7.57,3.55-8.73,4.21C58.56,105.24,58.75,109.62,58.75,109.62Z"/><path d="M78,104.41s3.33-2.63,4.86-3,4.47,2.22,4.47,2.22l-2.41.31s-1.91-.65-3-.06S78,106,78,106Z"/><path d="M31.31,25.24s2.31-3-1.31-7c-2.75-3-6.93-2.47-9.12-1.12-1.63,1-4,4.37-4,4.37A9.67,9.67,0,0,0,19.25,25a5.54,5.54,0,0,0,4.25,1s-.59,1.27-3.75,2.13a6.29,6.29,0,0,1-3.13-.25S16,31.49,23.25,33C27.5,33.87,31.31,25.24,31.31,25.24Z"/><path d="M95.71,20.45s2.39-8.88,6-10.58c7.66-3.67,15-2,17.16-.84s10.5,7.84,10,17.34c-.09,1.81-.5,7.5-4.83,9.5a28.46,28.46,0,0,1-10,2.5l1.87,8.83a87.19,87.19,0,0,0,11.46-7c3.67-2.67,4.5-6.66,4.5-13.67,0-11.16-7-18.67-13.12-20.91-5.21-1.92-17.09-.74-20.54,1.91C96,9.2,90.5,17.87,90.5,17.87Z"/><path d="M103.89,25.24S102.05,22,105.67,18c2.75-3,8.21-2.46,10.33-1a10.9,10.9,0,0,1,4.67,7.5,7.69,7.69,0,0,1-4.34,1.67,21.41,21.41,0,0,1-4.62-.21,8.52,8.52,0,0,0,4,3,8.22,8.22,0,0,0,3.66,0s-1,3.34-7.37,4C107.64,33.42,103.89,25.24,103.89,25.24Z"/><path d="M6.67,81.37c-2.45,9.5-3.75,28.06-3.75,28.06a24.88,24.88,0,0,1,3.25-5.17c1.55-1.58,2.8-2.91,2.8-2.91Z"/><path d="M8.33,87.62c-2.45,9.5-1.16,20.08-1.16,20.08l5.33-3.33Z"/><path d="M128.75,81.37c2.46,9.5,3.75,28.06,3.75,28.06a24.88,24.88,0,0,0-3.25-5.17c-1.55-1.58-2.79-2.91-2.79-2.91Z"/><path d="M127.1,87.62c2.45,9.5,1.15,20.08,1.15,20.08l-5.33-3.33Z"/><path d="M64.33,123.2c5.5-1.5,8.34-7,8.34-7a7.68,7.68,0,0,1-.17,5.67C71.17,124.7,64.33,123.2,64.33,123.2Z"/><path d="M9.62,70.49a64.59,64.59,0,0,0,6.13,9.88c2.87,4,9.25,9.5,9.25,9.5l-.75-3a93.79,93.79,0,0,1-6.75-9.63c-3.25-5.37-6.33-14.37-6.33-14.37Z"/><path d="M23.17,78.2S19,75,15.58,78C12.5,80.78,14,86.16,14,86.16l1.08-1s.15-3.59,1.88-5.25A5,5,0,0,1,22.08,79Z"/><path d="M25.12,83.3a4.26,4.26,0,0,0-5.37.32c-2.23,2.06-.56,6.5-.56,6.5l.93-1.07A4.84,4.84,0,0,1,21.06,85a2.57,2.57,0,0,1,3.13-.81Z"/><path d="M78,77.24a28.57,28.57,0,0,0-3.17-1.37L70.33,81l1.84-5.83a55,55,0,0,0-9.84.67,30.47,30.47,0,0,0-8.5,2.83S56.58,82,59,84.8a100,100,0,0,0,9,8.57s3.12-3.59,6.06-6.82c3.5-3.83,6.88-7.31,6.88-7.31A26.47,26.47,0,0,0,78,77.24ZM63.88,83.87l-4.63-4a33.77,33.77,0,0,1,3.39-1.12,30,30,0,0,1,3.8-.71Z"/><path d="M78.75,51a14.42,14.42,0,0,1,1.83-2.39A143.73,143.73,0,0,1,63.33,27.37a101.1,101.1,0,0,1-7-12.84l-6.5,1.34S54.71,24.58,63.33,37c2.46.94,6.17,2.13,6.17,2.13l-3.45,1.67A98.09,98.09,0,0,0,77.16,53.5C77.58,52.86,78.15,52,78.75,51Z"/><path d="M123.83,69.87a14.94,14.94,0,0,1-11-.34c-2.47-1-5.13-2.23-7.84-3.61-.21.72-.43,1.39-.61,1.88a16.84,16.84,0,0,1-1.93,3.35c1.75.85,3.49,1.65,5.22,2.38,13.57,5.77,17.33,1,17.33,1Z"/><path d="M87.67,72.53a31.65,31.65,0,0,0-7.5-1.16c-1.3,0-4.92.37-4.92.37-.26-.2-6.23-4.55-3-15.92,2.09-7.38,9.94-13,18.26-13a18.88,18.88,0,0,1,10.63,3.34c8.4,5.74,11,13.31,7.36,21.32a21.45,21.45,0,0,1-11,11l-.88.32S91,73.7,87.67,72.53Z"/><path class="cls-4" d="M77.63,69.82s-5.29-3.45-2.59-13c2.33-8.24,14.3-14.61,24.1-7.93s7.87,14,6.22,17.58a18.18,18.18,0,0,1-9.17,9.33s-5.39-3.72-8.53-4.68C84.88,70.31,77.63,69.82,77.63,69.82Z"/><path d="M77.17,62.12a11.54,11.54,0,0,1,7-11.51c10.1-4.51,19,2.49,19.75,8.86,1,8.28-4.36,10.42-4.36,10.42a9.68,9.68,0,0,0,3-10.89c-2.24-6.34-9.19-9-14.58-8.08A12.33,12.33,0,0,0,77.17,62.12Z"/><path id="path3078" class="cls-5" d="M88.78,59.44,84.86,64l6.36.61,3.59-5.27Z"/><path id="path3094" class="cls-6" d="M84.86,64l6.36.61-2.44-5.2-2.81-6Z"/><path id="path3110" class="cls-7" d="M86,53.45l2.81,6,2.44,5.2,3.59-5.27Z"/><path id="path3126" class="cls-6" d="M85.31,65l8.26,4.67-1.91-4.07Z"/><path id="path3142" class="cls-7" d="M91.66,65.58l1.91,4.07,1.69-9.34Z"/></g><path class="cls-1" d="M158.35,21H154.8V13H177a11.52,11.52,0,0,1,7.66,2.36q2.81,2.36,2.81,7.17V37.26q0,5.07-4.41,6.1A5.13,5.13,0,0,1,187,45.12a6.28,6.28,0,0,1,1.43,4.25V65.78q0,4.64-2.07,7.08t-7.62,2.45H158.35Zm14.29,18.81c1.67,0,2.8-.34,3.37-1a4.41,4.41,0,0,0,.87-2.92V24.72a4.52,4.52,0,0,0-.78-2.87c-.52-.66-1.62-1-3.29-1H169v19Zm.69,27.31c1.9,0,3.06-.29,3.46-.86A6,6,0,0,0,177.4,63V51.35a4.41,4.41,0,0,0-1-3.05,4.47,4.47,0,0,0-3.46-1.16H169v20Z"/><path class="cls-1" d="M195.14,13h24.5V21H205.88V34.6H217v8.16H205.88v24.3h13.76v8.25h-24.5Z"/><path class="cls-1" d="M231.33,21h-5.11V13h23l7,62.35H246l-.6-7.47h-9.53l-.69,7.47H224.75Zm13.16,38.91-4-39.17-4,39.17Z"/><path class="cls-1" d="M262,21h-3.55V13h21.29a12.9,12.9,0,0,1,7.88,2.19q2.94,2.19,2.94,7.08v19a8.88,8.88,0,0,1-1.64,5.67,6.09,6.09,0,0,1-4.68,2.23L293,75.31H281.28l-8.66-27.57V75.31H262Zm15,20.61c1.62,0,2.61-.21,3-.64a4.1,4.1,0,0,0,.56-2.54V24.55a4.58,4.58,0,0,0-.69-2.79c-.46-.6-1.53-.9-3.2-.9h-4V41.64Z"/><path class="cls-1" d="M299.2,21h-3.55V13H317a12.87,12.87,0,0,1,7.87,2.19q3,2.19,2.95,7.08v19a8.82,8.82,0,0,1-1.65,5.67,6.05,6.05,0,0,1-4.67,2.23l8.74,26.2H318.5l-8.65-27.57V75.31H299.2Zm15,20.61c1.61,0,2.61-.21,3-.64a4,4,0,0,0,.57-2.54V24.55a4.58,4.58,0,0,0-.7-2.79c-.46-.6-1.53-.9-3.2-.9h-4V41.64Z"/><path class="cls-1" d="M342.66,75.31a24.49,24.49,0,0,1-3.94-.26,4,4,0,0,1-3.6-3.35,17.41,17.41,0,0,1-.34-3.86V20.43a17.57,17.57,0,0,1,.34-3.87,4.48,4.48,0,0,1,1.22-2.27,4.47,4.47,0,0,1,2.38-1.08,24.66,24.66,0,0,1,3.94-.25h13.41a25.62,25.62,0,0,1,4,.25,4.74,4.74,0,0,1,2.46,1.08,4.24,4.24,0,0,1,1.26,2.27,17.49,17.49,0,0,1,.35,3.87V67.84a19.38,19.38,0,0,1-.31,3.78A3.95,3.95,0,0,1,360.45,75a19.1,19.1,0,0,1-3.77.3ZM351,67.58a3.5,3.5,0,0,0,2.12-.39q.39-.37.39-2.1V23.18a3.46,3.46,0,0,0-.39-2.11,3.52,3.52,0,0,0-2.12-.38h-3.12c-1.16,0-1.86.12-2.12.38a3.46,3.46,0,0,0-.39,2.11V65.09q0,1.72.39,2.1a3.48,3.48,0,0,0,2.12.39Z"/><path class="cls-1" d="M369.41,13h10.9l4.25,45.86,5.71-45.95h7.88l5.71,46L408.1,13H419l-9.09,62.35H398.75l-4.59-38-4.5,38H378.5Z"/><path class="cls-1" d="M424.46,13h10.83V75.31H424.46Z"/><path class="cls-1" d="M443.77,21h-3.55V13h14.2l9.87,30.83V13h10.64V75.31H466l-11.6-35v35H443.77Z"/><path class="cls-1" d="M501.16,75.31h-8.48a26,26,0,0,1-4.42-.34,9.33,9.33,0,0,1-3.41-1.25,6,6,0,0,1-2.21-2.45,8.73,8.73,0,0,1-.78-4V21q0-4.73,2.68-6.4c1.79-1.12,4.3-1.67,7.53-1.67h18V21H496.57a6.34,6.34,0,0,0-3.33.56c-.49.37-.73,1.21-.73,2.53V64.49a6.66,6.66,0,0,0,.13,1.5,1.2,1.2,0,0,0,.56.82,2.63,2.63,0,0,0,1.17.3c.49,0,1.17,0,2,0h4.24V42.76h-3.11V34.6h13.68V73.76l-10,3.53Z"/><path class="cls-1" d="M157.76,105.43a4.82,4.82,0,0,0,1.73-.33l.24.73a3.17,3.17,0,0,1-1,.28,6.35,6.35,0,0,1-1,.08h-.07a2.71,2.71,0,0,1-2.52-1.07,4.14,4.14,0,0,1-.48-1.77c0-.35,0-.74,0-1.16s0-.83,0-1.21a6.51,6.51,0,0,1,.14-1,3.12,3.12,0,0,1,.31-.86,1.82,1.82,0,0,1,.54-.63,3.15,3.15,0,0,1,2-.54A6.94,6.94,0,0,1,159,98a4.34,4.34,0,0,1,.7.18l-.24.83a5.5,5.5,0,0,0-1.76-.36,2.83,2.83,0,0,0-1.13.18,1.31,1.31,0,0,0-.61.58,6.12,6.12,0,0,0-.39,2.66v.39a4.37,4.37,0,0,0,.42,2.25,1.86,1.86,0,0,0,1.7.71Z"/><path class="cls-1" d="M170.81,100.57a2,2,0,0,0-1.38.67v4.85h-.88V99.8h.77l.09.84a2.11,2.11,0,0,1,.53-.6,1.41,1.41,0,0,1,.48-.27,1.77,1.77,0,0,1,.5-.07,2.56,2.56,0,0,1,.6.09l-.08.84A2.93,2.93,0,0,0,170.81,100.57Z"/><path class="cls-1" d="M180.3,107.61a2.06,2.06,0,0,0,.64.14l.32,0a.3.3,0,0,0,.15,0,.61.61,0,0,0,.28-.33,8.61,8.61,0,0,0,.38-1.18l-2.42-6.37h1l1.63,4.64.25.81.23-.82,1.45-4.63h.92l-2.66,7.78a1.26,1.26,0,0,1-1.34.91,2.44,2.44,0,0,1-1-.19Z"/><path class="cls-1" d="M195,105.71v2.78h-.88V99.8h.72l.1.65a4.19,4.19,0,0,1,1.61-.68,3.84,3.84,0,0,1,.78-.07,2.19,2.19,0,0,1,.75.11,1.33,1.33,0,0,1,.53.31,1.29,1.29,0,0,1,.33.47,2.63,2.63,0,0,1,.18.6,9.46,9.46,0,0,1,.07,1.41v.12a12.78,12.78,0,0,1-.08,1.72,3.3,3.3,0,0,1-.23.78,1.44,1.44,0,0,1-.38.53,2.31,2.31,0,0,1-1.55.44A4.08,4.08,0,0,1,195,105.71Zm0-.72a4.56,4.56,0,0,0,1.89.41,1.49,1.49,0,0,0,.94-.24,2.17,2.17,0,0,0,.45-1.52c0-.27,0-.57,0-.91v-.12A4.07,4.07,0,0,0,198,101a1,1,0,0,0-1-.47H197a3.75,3.75,0,0,0-1.61.38,3,3,0,0,0-.41.23Z"/><path class="cls-1" d="M211.79,105.79a3.73,3.73,0,0,1-1.59.4c-.88,0-1.38-.37-1.5-1.13a7.06,7.06,0,0,1,0-.78v-3.74h-.76v-.65l.76-.09.14-1.43h.73V99.8h1.84v.74h-1.84v3.73a2.26,2.26,0,0,0,.1.83.72.72,0,0,0,.7.32,2.58,2.58,0,0,0,1.16-.32Z"/><path class="cls-1" d="M220.4,103a7.77,7.77,0,0,1,.12-1.67,2.93,2.93,0,0,1,.3-.76,1.63,1.63,0,0,1,.48-.46,3.42,3.42,0,0,1,1.78-.37q1.69,0,2.19.84a3.27,3.27,0,0,1,.33,1.43c0,.29,0,.61,0,1s0,.68,0,1a4.7,4.7,0,0,1-.13.82,2.34,2.34,0,0,1-.28.64,1.48,1.48,0,0,1-.48.45,3.24,3.24,0,0,1-1.69.36,2.43,2.43,0,0,1-2.2-.82,3,3,0,0,1-.37-1.44C220.41,103.64,220.4,103.31,220.4,103Zm1.44,2.2a1.33,1.33,0,0,0,.48.22,3.28,3.28,0,0,0,.79.07,2.21,2.21,0,0,0,.83-.14,1.06,1.06,0,0,0,.52-.46,2.18,2.18,0,0,0,.21-.82c0-.33.05-.72.05-1.16s0-.82,0-1.11a1.9,1.9,0,0,0-.2-.74q-.31-.57-1.41-.57t-1.5.57a1.75,1.75,0,0,0-.23.74c0,.3,0,.63,0,1s0,.65,0,.89a4.05,4.05,0,0,0,.07.66,1.7,1.7,0,0,0,.16.51A.88.88,0,0,0,221.84,105.16Z"/><path class="cls-1" d="M250.24,100.08c0,1.08-.41,1.68-1.23,1.79h0a1.76,1.76,0,0,1,1.14.44,1.74,1.74,0,0,1,.43,1.28,3.49,3.49,0,0,1-.19,1.31,1.67,1.67,0,0,1-.54.72,3,3,0,0,1-1.84.46h-2.7V98c1-.09,1.78-.13,2.41-.13a4.82,4.82,0,0,1,1.4.14,1.62,1.62,0,0,1,.69.42A2.4,2.4,0,0,1,250.24,100.08Zm-2.84,1.53a2.6,2.6,0,0,0,1.47-.3,1.45,1.45,0,0,0,.47-1.25V100a1.34,1.34,0,0,0-.31-1,1.51,1.51,0,0,0-1.06-.3c-.42,0-.78,0-1.07,0l-.69,0v2.9Zm.72,3.73a1.64,1.64,0,0,0,1.11-.3,1.73,1.73,0,0,0,.42-1.34c0-.75-.28-1.18-.82-1.31a2.35,2.35,0,0,0-.54-.06h-2.08v3Z"/><path class="cls-1" d="M259.64,103a7.77,7.77,0,0,1,.12-1.67,2.61,2.61,0,0,1,.3-.76,1.63,1.63,0,0,1,.48-.46,3.4,3.4,0,0,1,1.78-.37q1.69,0,2.19.84a3.27,3.27,0,0,1,.33,1.43c0,.29,0,.61,0,1s0,.68,0,1a3.89,3.89,0,0,1-.14.82,2.07,2.07,0,0,1-.28.64,1.45,1.45,0,0,1-.47.45,3.26,3.26,0,0,1-1.7.36,2.42,2.42,0,0,1-2.19-.82,3,3,0,0,1-.37-1.44C259.65,103.64,259.64,103.31,259.64,103Zm1.44,2.2a1.19,1.19,0,0,0,.48.22,3.24,3.24,0,0,0,.78.07,2.3,2.3,0,0,0,.84-.14,1,1,0,0,0,.51-.46,2,2,0,0,0,.22-.82c0-.33,0-.72,0-1.16s0-.82,0-1.11a2.1,2.1,0,0,0-.2-.74q-.32-.57-1.41-.57c-.77,0-1.28.19-1.51.57a1.9,1.9,0,0,0-.22.74c0,.3-.05.63-.05,1s0,.65,0,.89a4.14,4.14,0,0,0,.06.66,2,2,0,0,0,.17.51A.88.88,0,0,0,261.08,105.16Z"/><path class="cls-1" d="M276.66,100.57a2,2,0,0,0-1.38.67v4.85h-.88V99.8h.77l.09.84a2.11,2.11,0,0,1,.53-.6,1.41,1.41,0,0,1,.48-.27,1.77,1.77,0,0,1,.5-.07,2.56,2.56,0,0,1,.6.09l-.08.84A2.93,2.93,0,0,0,276.66,100.57Z"/><path class="cls-1" d="M288.55,100.57a2,2,0,0,0-1.38.67v4.85h-.88V99.8h.77l.09.84a2.11,2.11,0,0,1,.53-.6,1.33,1.33,0,0,1,.48-.27,1.77,1.77,0,0,1,.5-.07,2.49,2.49,0,0,1,.59.09l-.07.84A2.93,2.93,0,0,0,288.55,100.57Z"/><path class="cls-1" d="M298,103a7.77,7.77,0,0,1,.12-1.67,2.61,2.61,0,0,1,.3-.76,1.48,1.48,0,0,1,.47-.46,3.42,3.42,0,0,1,1.78-.37q1.71,0,2.19.84a3.27,3.27,0,0,1,.33,1.43c0,.29,0,.61,0,1s0,.68,0,1a3.91,3.91,0,0,1-.13.82,2.34,2.34,0,0,1-.28.64,1.48,1.48,0,0,1-.48.45,3.22,3.22,0,0,1-1.69.36,2.42,2.42,0,0,1-2.19-.82,3,3,0,0,1-.38-1.44C298,103.64,298,103.31,298,103Zm1.43,2.2a1.33,1.33,0,0,0,.48.22,3.28,3.28,0,0,0,.79.07,2.3,2.3,0,0,0,.84-.14,1,1,0,0,0,.51-.46,2.17,2.17,0,0,0,.22-.82c0-.33,0-.72,0-1.16s0-.82,0-1.11a1.9,1.9,0,0,0-.2-.74q-.31-.57-1.41-.57t-1.5.57a1.74,1.74,0,0,0-.22.74,7.55,7.55,0,0,0-.05,1c0,.35,0,.65,0,.89a4.05,4.05,0,0,0,.07.66,2,2,0,0,0,.16.51A1.07,1.07,0,0,0,299.43,105.16Z"/><path class="cls-1" d="M312.07,99.8H313l1.33,4.62.24,1,.17-.85,1.38-4.78H317l1.36,4.62.23,1,.17-.86,1.31-4.78H321l-1.86,6.29H318l-1.2-4-.25-1.24-.21,1.24-1.2,4H314Z"/><path class="cls-1" d="M330.67,98.3a.75.75,0,0,1-.46-.1.64.64,0,0,1-.15-.45,2.05,2.05,0,0,1,0-.42.49.49,0,0,1,.1-.19.57.57,0,0,1,.39-.13,1.68,1.68,0,0,1,.38,0,.4.4,0,0,1,.18.1.54.54,0,0,1,.13.42,2,2,0,0,1,0,.41.42.42,0,0,1-.1.2A.68.68,0,0,1,330.67,98.3Zm-.43,1.5h.87v6.29h-.86Z"/><path class="cls-1" d="M344,100.52a4.17,4.17,0,0,0-2.1.61v5H341V99.8h.77l.08.65a3.58,3.58,0,0,1,1.43-.67,3.93,3.93,0,0,1,.82-.08,2.65,2.65,0,0,1,.83.11,1.16,1.16,0,0,1,.57.34,2.37,2.37,0,0,1,.39,1.56v4.38H345v-4.22a2.06,2.06,0,0,0-.15-1,.74.74,0,0,0-.35-.29A1.56,1.56,0,0,0,344,100.52Z"/><path class="cls-1" d="M359.63,105.49a3.67,3.67,0,0,1-2.14.7,1.74,1.74,0,0,1-1.75-.93,3.54,3.54,0,0,1-.3-1.34c0-.24,0-.52,0-.81s0-.6,0-.9a5.35,5.35,0,0,1,.06-.84,2.87,2.87,0,0,1,.19-.7,1.45,1.45,0,0,1,.35-.52,2.11,2.11,0,0,1,1.48-.45,4.93,4.93,0,0,1,2.13.54l.09-.44h.76V106a3,3,0,0,1-.53,2,2.47,2.47,0,0,1-1.93.65,5.66,5.66,0,0,1-1.87-.28l-.32-.13.28-.74.28.1c.12,0,.27.09.44.14a4.56,4.56,0,0,0,1.2.17,2.3,2.3,0,0,0,.84-.11,1,1,0,0,0,.46-.34,2.56,2.56,0,0,0,.28-1.42Zm0-4.53a4.22,4.22,0,0,0-1.84-.47,2.24,2.24,0,0,0-.85.1,1,1,0,0,0-.32.28,1.43,1.43,0,0,0-.17.46,9.72,9.72,0,0,0-.12,1.83v.12a3.25,3.25,0,0,0,.29,1.64,1.12,1.12,0,0,0,1.06.48h.08a3.18,3.18,0,0,0,1.49-.4,2.73,2.73,0,0,0,.38-.23Z"/><path class="cls-1" d="M384.29,103.72H381l-.76,2.37h-.93L382,98h1.24l2.82,8.08h-.95Zm-3-.76H384l-1.43-4.24-.16.6Z"/><path class="cls-1" d="M398.87,105.49a3.64,3.64,0,0,1-2.13.7,1.76,1.76,0,0,1-1.76-.93,3.37,3.37,0,0,1-.29-1.34c0-.24,0-.52,0-.81s0-.6,0-.9a6.9,6.9,0,0,1,.06-.84,2.87,2.87,0,0,1,.19-.7,1.45,1.45,0,0,1,.35-.52,2.12,2.12,0,0,1,1.49-.45,5,5,0,0,1,2.13.54l.08-.44h.76V106a3,3,0,0,1-.54,2,2.46,2.46,0,0,1-1.92.65,5.72,5.72,0,0,1-1.88-.28l-.32-.13.28-.74.28.1c.12,0,.27.09.44.14a4.56,4.56,0,0,0,1.2.17,2.39,2.39,0,0,0,.85-.11,1,1,0,0,0,.46-.34,2.67,2.67,0,0,0,.27-1.42Zm0-4.53a4.18,4.18,0,0,0-1.84-.47,2.24,2.24,0,0,0-.85.1.85.85,0,0,0-.31.28,1.42,1.42,0,0,0-.18.46,9.72,9.72,0,0,0-.12,1.83v.12a3.36,3.36,0,0,0,.29,1.64,1.14,1.14,0,0,0,1.06.48H397a3.15,3.15,0,0,0,1.49-.4,2.73,2.73,0,0,0,.38-.23Z"/><path class="cls-1" d="M413.45,105.49a3.64,3.64,0,0,1-2.13.7,1.73,1.73,0,0,1-1.75-.93,3.54,3.54,0,0,1-.3-1.34c0-.24,0-.52,0-.81s0-.6,0-.9a6.78,6.78,0,0,1,.07-.84,3.41,3.41,0,0,1,.18-.7,1.35,1.35,0,0,1,.36-.52,2.1,2.1,0,0,1,1.48-.45,4.93,4.93,0,0,1,2.13.54l.08-.44h.76V106a3,3,0,0,1-.53,2,2.48,2.48,0,0,1-1.93.65,5.72,5.72,0,0,1-1.88-.28,2.65,2.65,0,0,1-.31-.13l.27-.74.28.1c.12,0,.27.09.44.14a4.57,4.57,0,0,0,1.21.17,2.37,2.37,0,0,0,.84-.11,1,1,0,0,0,.46-.34,2.67,2.67,0,0,0,.27-1.42Zm0-4.53a4.15,4.15,0,0,0-1.84-.47,2.28,2.28,0,0,0-.85.1.94.94,0,0,0-.31.28,1.69,1.69,0,0,0-.18.46,9.72,9.72,0,0,0-.12,1.83v.12a3.36,3.36,0,0,0,.29,1.64,1.15,1.15,0,0,0,1.06.48h.08a3.12,3.12,0,0,0,1.49-.4,2.25,2.25,0,0,0,.38-.23Z"/><path class="cls-1" d="M426.27,100.57a2,2,0,0,0-1.38.67v4.85H424V99.8h.77l.08.84a2.29,2.29,0,0,1,.54-.6,1.39,1.39,0,0,1,.47-.27,1.82,1.82,0,0,1,.5-.07,2.56,2.56,0,0,1,.6.09l-.08.84A2.93,2.93,0,0,0,426.27,100.57Z"/><path class="cls-1" d="M440.83,105.76a6.51,6.51,0,0,1-2.42.43,4.89,4.89,0,0,1-1.3-.15,1.62,1.62,0,0,1-1.13-1,6.63,6.63,0,0,1-.25-2.11v-.27a3.22,3.22,0,0,1,.69-2.35,3,3,0,0,1,2.1-.6,2.28,2.28,0,0,1,2,.7,2,2,0,0,1,.34.84,6,6,0,0,1,.08.93c0,.46,0,.82,0,1.07l-1.34,0h-.85a15.08,15.08,0,0,1-2.05-.11,3.38,3.38,0,0,0,.31,1.69,1.65,1.65,0,0,0,1.49.59,5.44,5.44,0,0,0,2.15-.44Zm-.83-3.22V102a1.75,1.75,0,0,0-.32-1.18,1.61,1.61,0,0,0-1.24-.4,1.86,1.86,0,0,0-1.45.46,2.67,2.67,0,0,0-.37,1.63Z"/><path class="cls-1" d="M454.51,105.49a3.67,3.67,0,0,1-2.14.7,1.74,1.74,0,0,1-1.75-.93,3.54,3.54,0,0,1-.3-1.34c0-.24,0-.52,0-.81s0-.6,0-.9a5.35,5.35,0,0,1,.06-.84,2.87,2.87,0,0,1,.19-.7,1.45,1.45,0,0,1,.35-.52,2.11,2.11,0,0,1,1.48-.45,4.93,4.93,0,0,1,2.13.54l.09-.44h.76V106a3,3,0,0,1-.53,2,2.47,2.47,0,0,1-1.93.65,5.66,5.66,0,0,1-1.87-.28l-.32-.13.28-.74.28.1c.12,0,.27.09.44.14a4.56,4.56,0,0,0,1.2.17,2.3,2.3,0,0,0,.84-.11,1,1,0,0,0,.46-.34,2.56,2.56,0,0,0,.28-1.42Zm0-4.53a4.22,4.22,0,0,0-1.84-.47,2.24,2.24,0,0,0-.85.1,1,1,0,0,0-.32.28,1.43,1.43,0,0,0-.17.46,9.72,9.72,0,0,0-.12,1.83v.12a3.25,3.25,0,0,0,.29,1.64,1.12,1.12,0,0,0,1.06.48h.08a3.18,3.18,0,0,0,1.49-.4,2.73,2.73,0,0,0,.38-.23Z"/><path class="cls-1" d="M469.88,103.86c0,.7,0,1.43.1,2.19l-.78.06-.13-.73a4.22,4.22,0,0,1-1.78.75,3.91,3.91,0,0,1-.64.06,3.7,3.7,0,0,1-.49,0,1.46,1.46,0,0,1-.41-.11,1.36,1.36,0,0,1-.37-.21,1.18,1.18,0,0,1-.29-.36,2.34,2.34,0,0,1-.27-1.16,4.58,4.58,0,0,1,.09-1,1.47,1.47,0,0,1,.33-.62,2,2,0,0,1,1.51-.5,7.18,7.18,0,0,1,2.27.41v-.69a1.21,1.21,0,0,0-.95-1.36,3.6,3.6,0,0,0-.7-.07,5.43,5.43,0,0,0-1.88.36l-.19-.76a3.9,3.9,0,0,1,1.37-.32,6.74,6.74,0,0,1,.84,0,4.49,4.49,0,0,1,1,.11,2,2,0,0,1,.78.38,2.1,2.1,0,0,1,.63,1.7Zm-.89-.62a9.25,9.25,0,0,0-2.28-.32.9.9,0,0,0-.85.37,1.59,1.59,0,0,0-.15.77,3.12,3.12,0,0,0,.06.73,1,1,0,0,0,.18.38,1,1,0,0,0,.82.28,3.71,3.71,0,0,0,1.77-.46,2.71,2.71,0,0,0,.49-.31C469,104.3,469,103.82,469,103.24Z"/><path class="cls-1" d="M482.75,105.79a3.8,3.8,0,0,1-1.59.4c-.88,0-1.38-.37-1.5-1.13a5.21,5.21,0,0,1,0-.78v-3.74h-.76v-.65l.76-.09.13-1.43h.74V99.8h1.83v.74h-1.83v3.73a2.33,2.33,0,0,0,.09.83.73.73,0,0,0,.7.32,2.58,2.58,0,0,0,1.17-.32Z"/><path class="cls-1" d="M491.36,103a7.77,7.77,0,0,1,.12-1.67,2.61,2.61,0,0,1,.3-.76,1.59,1.59,0,0,1,.47-.46A3.45,3.45,0,0,1,494,99.7q1.71,0,2.19.84a3,3,0,0,1,.33,1.43c0,.29,0,.61,0,1s0,.68,0,1a4.66,4.66,0,0,1-.14.82,2.34,2.34,0,0,1-.28.64,1.56,1.56,0,0,1-.47.45,3.28,3.28,0,0,1-1.7.36,2.42,2.42,0,0,1-2.19-.82,3,3,0,0,1-.38-1.44C491.37,103.64,491.36,103.31,491.36,103Zm1.43,2.2a1.33,1.33,0,0,0,.48.22,3.33,3.33,0,0,0,.79.07,2.3,2.3,0,0,0,.84-.14,1,1,0,0,0,.51-.46,2,2,0,0,0,.22-.82c0-.33,0-.72,0-1.16s0-.82,0-1.11a1.91,1.91,0,0,0-.19-.74c-.22-.38-.69-.57-1.42-.57s-1.27.19-1.5.57a1.74,1.74,0,0,0-.22.74c0,.3-.05.63-.05,1s0,.65,0,.89a4.05,4.05,0,0,0,.07.66,1.7,1.7,0,0,0,.17.51A.94.94,0,0,0,492.79,105.16Z"/><path class="cls-1" d="M508.38,100.57a2,2,0,0,0-1.38.67v4.85h-.88V99.8h.77l.09.84a2.11,2.11,0,0,1,.53-.6,1.33,1.33,0,0,1,.48-.27,1.77,1.77,0,0,1,.5-.07,2.49,2.49,0,0,1,.59.09l-.08.84A2.9,2.9,0,0,0,508.38,100.57Z"/></g></g></svg>