<svg xmlns="http://www.w3.org/2000/svg" viewBox="0 0 129.58 123.11"><defs><style>.cls-1{fill:#aa9887;}.cls-2{fill:#ddccc0;}.cls-3{fill:#fff;}.cls-4{fill:#aecc7a;}.cls-5,.cls-6,.cls-7{fill:#010101;isolation:isolate;}.cls-5{opacity:0.6;}.cls-6{opacity:0.45;}.cls-7{opacity:0.8;}</style></defs><title>icon</title><g id="Ebene_2" data-name="Ebene 2"><g id="color_1" data-name="color 1"><g id="bear"><path class="cls-1" d="M16.74,36.2s-8.33,0-11.66-5.66c-1.82-3.1-1-8.51-1-8.51s3.66,3,5.16,1.67S8.58,17,8.58,17s2.44-.33,2.33-2c-.17-2.67-4.5-4.67-4.5-4.67A16,16,0,0,1,19.74,1.7c18-1.5,19,12.17,19,12.17A72.56,72.56,0,0,1,63.41,10.2a83.66,83.66,0,0,1,26.5,5.5s3.14-8,7.5-10.83c4.83-3.17,14.17-4.34,21.17.33s12,16.33,6.83,25.5-13.5,7.84-13.5,7.84,13.5,30.16,12.67,47.83-19.17,28.17-28.17,30.5-42.95,9.61-71.33-6.67C3.58,97.87,4.08,87.37,8.41,65S16.74,36.2,16.74,36.2Z"/><path class="cls-2" d="M43.08,117.24c-1.22-.4-13.38-21.37-13-26.5S38.83,70.49,45.7,68.62,77,65.24,83.83,67.87s17.62,17.37,17.87,22.37-6.75,23.5-9.25,25.88S53.33,120.62,43.08,117.24Z"/><path class="cls-3" d="M54.08,75.2a44.73,44.73,0,0,1,5.16-1.5c1.34-.17,5.5-.5,5.5-.5l-2.83,8Z"/><path d="M118.75,49.2c-7.7-20.66-16.34-29.88-26.34-35C82.16,9,66.13,7.52,60.25,7.87c-6.38.37-15.17.75-24.67,6.5s-16.17,11-24.33,32.83C4.9,64.16-1,90.44,6.08,98.87c5.83,6.92,28.36,25.54,61.17,24.16,45.92-1.92,53.91-18.91,57.08-23.66C128.75,92.74,128.37,75.05,118.75,49.2ZM95,113.62c-11.87,3.5-34,6.08-50.62,1.25C25.1,109.26,11.91,97.2,9.58,93c-3.63-6.48.27-34.7,11.83-58.5C30.08,16.7,49.7,12.74,61.58,12.37c9.24-.29,37,.66,48.67,28.33,5.72,13.58,15.12,42.17,11.16,51.67C118.91,98.37,108.87,109.51,95,113.62Z"/><path d="M36.58,16.45s-.5-8.21-5.17-10.83c-7.7-4.34-17.7-1-19.33-.09-1.88,1.09-4,4.46-4,4.46s3.5,1.88,3.67,4.79a3.09,3.09,0,0,1-2,2.92s2.16,4.5.5,7C8.81,26.85,5,24.2,5,24.2s-.26,4.68,2.91,6.67c6,3.75,10.75,3.16,10.75,3.16L16.41,43.2s-7.33-3.5-12-9c-3.24-3.83-2-15.33-2-15.33s3.71,3.58,5.21,3.58-.33-6.83-.33-6.83,2.92.16,1.5-1.67a8.41,8.41,0,0,0-4.08-2.58S9.08,3.2,13.58,1.62c8-2.8,17-1.86,22.25,2,3.37,2.5,5.33,11.16,5.33,11.16Z"/><path d="M32.33,44.49l-6,7.63,7.25,2.62.5,3,7.37,3.5-8.87,6.13,2,1.12S44,65.87,46.83,65.24,56,63.49,56,63.49L61.2,59l-.37-8.75-2.13,1.5L58,57.49s-6.12-1.37-13.5-3.5-13.12-3.12-13.12-3.12l2.12-4.63Z"/><path d="M39.41,117.7s-12.07-21-12-25.5C27.58,81.53,39.25,68,45.75,66.7c10.06-2.07,35.87-2.69,43.5,1.83,5.33,3.17,15.33,17.67,14.33,23.17-2,11.18-8.83,24.33-8.83,24.33l-6.17,1.5S99.41,99.87,99.41,90.7c0-5.6-11.33-19.83-15.83-21.17-6.75-2-29.3-1.27-34-.33-3.34.67-4.5-.17-10.17,7-3.41,4.32-7.66,11-7.5,14.67.35,7.66,14,27.16,14,27.16Z"/><polygon points="63.24 85.2 63.08 98.87 66.91 97.37 67.08 85.31 63.24 85.2"/><path d="M55.83,105.62l2-1.19s0-1.69.69-1.94c1.95-.73,24.23-9.54,26.06-10,.91-.25,1.5-.65,2.25.42.43.61,1.87,3.18,1.87,3.18L91,95.87s-3.11-8.67-4.61-8.17-16.5,6.67-21.16,8.83-7.57,3.55-8.73,4.21C55.64,101.24,55.83,105.62,55.83,105.62Z"/><path d="M75,100.41s3.33-2.63,4.85-3,4.48,2.22,4.48,2.22L82,99.93s-1.91-.65-3-.06S75.1,102,75.1,102Z"/><path d="M28.39,21.24s2.3-3-1.31-7c-2.75-3-6.93-2.47-9.13-1.12-1.62,1-4,4.37-4,4.37A9.61,9.61,0,0,0,16.33,21a5.54,5.54,0,0,0,4.25,1s-.6,1.27-3.75,2.13a6.27,6.27,0,0,1-3.13-.25s-.62,3.62,6.63,5.12C24.57,29.87,28.39,21.24,28.39,21.24Z"/><path d="M92.79,16.45s2.39-8.88,6-10.58c7.66-3.67,15-2,17.16-.84s10.5,7.84,10,17.34c-.09,1.81-.5,7.5-4.83,9.5a28.46,28.46,0,0,1-10,2.5L113,43.2a87.19,87.19,0,0,0,11.46-7c3.67-2.67,4.5-6.66,4.5-13.67,0-11.16-7-18.67-13.12-20.91C110.58-.3,98.7.87,95.25,3.53c-2.17,1.67-7.67,10.34-7.67,10.34Z"/><path d="M101,21.24S99.13,18,102.75,14c2.75-3,8.21-2.46,10.33-1a10.9,10.9,0,0,1,4.67,7.5,7.69,7.69,0,0,1-4.34,1.67,21.41,21.41,0,0,1-4.62-.21,8.52,8.52,0,0,0,4,3,8.22,8.22,0,0,0,3.66,0s-1,3.34-7.37,4C104.72,29.42,101,21.24,101,21.24Z"/><path d="M3.75,77.37C1.29,86.87,0,105.43,0,105.43a24.88,24.88,0,0,1,3.25-5.17C4.8,98.68,6,97.35,6,97.35Z"/><path d="M5.4,83.62C3,93.12,4.25,103.7,4.25,103.7l5.33-3.33Z"/><path d="M125.83,77.37c2.45,9.5,3.75,28.06,3.75,28.06a25.34,25.34,0,0,0-3.25-5.17c-1.55-1.58-2.8-2.91-2.8-2.91Z"/><path d="M124.17,83.62c2.45,9.5,1.16,20.08,1.16,20.08L120,100.37Z"/><path d="M61.41,119.2c5.5-1.5,8.33-7,8.33-7a7.65,7.65,0,0,1-.16,5.67C68.24,120.7,61.41,119.2,61.41,119.2Z"/><path d="M6.7,66.49a64.59,64.59,0,0,0,6.13,9.88c2.87,4,9.25,9.5,9.25,9.5l-.75-3a92,92,0,0,1-6.75-9.63c-3.25-5.37-6.34-14.37-6.34-14.37Z"/><path d="M20.24,74.2S16,71,12.66,74C9.58,76.78,11,82.16,11,82.16l1.08-1s.15-3.59,1.87-5.25A5,5,0,0,1,19.16,75Z"/><path d="M22.2,79.3a4.26,4.26,0,0,0-5.37.32c-2.23,2.06-.56,6.5-.56,6.5l.93-1.07A4.84,4.84,0,0,1,18.14,81a2.57,2.57,0,0,1,3.13-.81Z"/><path d="M75.08,73.24a28.57,28.57,0,0,0-3.17-1.37L67.41,77l1.84-5.83a55,55,0,0,0-9.84.67,30.47,30.47,0,0,0-8.5,2.83s2.75,3.3,5.17,6.1a98.56,98.56,0,0,0,9,8.57s3.12-3.59,6.06-6.82c3.5-3.83,6.88-7.31,6.88-7.31A26.47,26.47,0,0,0,75.08,73.24ZM61,79.87l-4.62-4a33.77,33.77,0,0,1,3.39-1.12,30,30,0,0,1,3.8-.71Z"/><path d="M75.83,47a14.42,14.42,0,0,1,1.83-2.39A143.73,143.73,0,0,1,60.41,23.37a101.1,101.1,0,0,1-7-12.84l-6.5,1.34S51.78,20.58,60.41,33c2.46.94,6.17,2.13,6.17,2.13l-3.45,1.67A98.09,98.09,0,0,0,74.24,49.5C74.65,48.86,75.23,48,75.83,47Z"/><path d="M120.91,65.87a14.94,14.94,0,0,1-11-.34c-2.47-1-5.13-2.23-7.84-3.61-.22.72-.43,1.39-.62,1.88a15.92,15.92,0,0,1-1.93,3.35c1.76.85,3.5,1.65,5.23,2.38,13.56,5.77,17.33,1,17.33,1Z"/><path d="M84.75,68.53a31.65,31.65,0,0,0-7.5-1.16c-1.3,0-4.92.37-4.92.37-.27-.2-6.23-4.55-3-15.92,2.09-7.38,9.94-13,18.26-13a18.88,18.88,0,0,1,10.63,3.34c8.4,5.74,11,13.31,7.35,21.32a21.41,21.41,0,0,1-11,11l-.87.32S88.08,69.7,84.75,68.53Z"/><path class="cls-4" d="M74.71,65.82s-5.29-3.45-2.6-13c2.34-8.24,14.31-14.61,24.11-7.93s7.87,14,6.22,17.58a18.18,18.18,0,0,1-9.18,9.33s-5.38-3.72-8.52-4.68C82,66.31,74.71,65.82,74.71,65.82Z"/><path d="M74,58a11.54,11.54,0,0,1,7-11.51C91.09,42,100,49,100.73,55.34c1,8.28-4.36,10.42-4.36,10.42a9.68,9.68,0,0,0,3-10.89c-2.24-6.34-9.19-9-14.58-8.09A12.34,12.34,0,0,0,74,58Z"/><path id="path3078" class="cls-5" d="M85.59,55.31,81.68,59.9l6.35.61,3.59-5.27Z"/><path id="path3094" class="cls-6" d="M81.68,59.9l6.35.61-2.44-5.2-2.81-6Z"/><path id="path3110" class="cls-7" d="M82.78,49.32l2.81,6L88,60.51l3.59-5.27Z"/><path id="path3126" class="cls-6" d="M82.12,60.85l8.26,4.67-1.91-4.07Z"/><path id="path3142" class="cls-7" d="M88.47,61.45l1.91,4.07,1.69-9.34Z"/></g></g></g></svg>