<?xml version="1.0" standalone="no"?>
<!DOCTYPE svg PUBLIC "-//W3C//DTD SVG 20010904//EN"
 "http://www.w3.org/TR/2001/REC-SVG-20010904/DTD/svg10.dtd">
<svg version="1.0" xmlns="http://www.w3.org/2000/svg"
 width="1040.000000pt" height="1040.000000pt" viewBox="0 0 1040.000000 1040.000000"
 preserveAspectRatio="xMidYMid meet">
<metadata>
Created by potrace 1.11, written by Peter Selinger 2001-2013
</metadata>
<g transform="translate(0.000000,1040.000000) scale(0.100000,-0.100000)"
fill="#000000" stroke="none">
<path d="M1689 10136 c-2 -2 -34 -6 -70 -10 -36 -3 -79 -8 -95 -11 -16 -3 -42
-7 -59 -9 -16 -3 -40 -7 -51 -10 -12 -2 -37 -7 -56 -10 -20 -3 -48 -10 -64
-16 -16 -6 -30 -11 -32 -10 -2 1 -103 -26 -132 -36 -8 -3 -17 -5 -20 -5 -3 -1
-11 -5 -17 -11 -7 -6 -13 -8 -13 -4 0 7 -81 -32 -90 -43 -3 -3 -16 -12 -30
-19 -45 -23 -156 -125 -240 -221 -30 -35 -60 -68 -65 -75 -39 -43 -191 -269
-249 -369 l-27 -47 28 -11 c39 -15 157 -72 163 -79 3 -3 23 -18 44 -34 137
-102 158 -191 50 -212 -21 -4 -47 -7 -57 -6 -21 1 -21 6 4 -108 11 -52 22
-108 24 -125 2 -16 4 -30 5 -30 12 0 21 -221 10 -251 -11 -28 -51 -48 -62 -30
-4 6 -8 8 -8 3 0 -8 -101 41 -110 53 -3 4 -15 13 -28 19 -24 13 -50 33 -81 61
-9 8 -37 32 -61 52 -25 20 -58 48 -74 62 -16 15 -30 25 -32 23 -2 -1 -6 -52
-10 -112 -13 -191 -7 -512 11 -630 3 -16 7 -48 9 -70 20 -163 88 -338 165
-426 109 -124 260 -262 405 -369 34 -25 63 -48 64 -52 2 -5 7 -8 12 -8 11 0
134 -82 138 -92 2 -5 8 -8 13 -8 6 0 24 -10 42 -22 18 -13 33 -23 35 -24 1 0
-11 -33 -27 -72 -17 -40 -27 -72 -23 -72 4 0 1 -4 -6 -8 -7 -5 -14 -17 -16
-28 -2 -10 -10 -32 -17 -49 -7 -16 -13 -32 -14 -35 -1 -3 -8 -18 -15 -35 -7
-16 -14 -34 -15 -40 0 -5 -6 -23 -13 -38 -6 -15 -15 -39 -18 -52 -3 -14 -9
-25 -13 -25 -4 0 -8 -6 -8 -12 0 -7 -28 -92 -63 -188 -34 -96 -63 -179 -64
-185 -1 -5 -4 -14 -8 -20 -6 -11 -41 -128 -39 -133 1 -1 -6 -16 -14 -32 -9
-17 -13 -30 -11 -30 2 0 -4 -25 -15 -55 -10 -30 -21 -63 -23 -72 -1 -10 -6
-25 -9 -33 -5 -13 -36 -119 -43 -145 -13 -52 -117 -437 -124 -460 -5 -16 -12
-46 -15 -65 -3 -19 -8 -43 -11 -52 -3 -9 -7 -25 -9 -35 -2 -10 -10 -49 -19
-88 -9 -38 -17 -79 -19 -90 -1 -11 -6 -26 -10 -32 -5 -7 -6 -13 -3 -13 2 0 1
-14 -4 -32 -5 -17 -12 -49 -16 -72 -3 -22 -7 -43 -9 -46 -2 -4 -7 -29 -11 -56
-3 -27 -8 -57 -10 -67 -10 -44 -12 -55 -19 -97 -4 -25 -9 -52 -10 -61 -2 -9
-6 -40 -10 -70 -4 -30 -8 -56 -10 -59 -1 -3 -6 -32 -10 -65 -3 -33 -9 -76 -12
-95 -3 -19 -6 -51 -8 -70 -3 -39 -6 -57 -41 -245 -14 -71 -27 -148 -30 -170
-3 -22 -7 -51 -11 -65 -5 -24 -9 -49 -18 -120 -2 -19 -6 -46 -9 -60 -5 -24
-14 -94 -21 -155 -11 -90 -16 -133 -20 -157 -3 -15 -7 -49 -10 -75 -2 -27 -7
-70 -11 -98 -9 -77 -18 -164 -28 -275 -2 -19 -4 -35 -5 -35 -1 0 -4 -27 -6
-60 -2 -33 -6 -78 -9 -100 -5 -37 -8 -62 -21 -207 -2 -29 -7 -89 -10 -133 -4
-44 -8 -100 -10 -124 -5 -53 2 -47 46 39 18 36 35 67 38 70 8 7 30 41 38 60 4
8 9 17 12 20 4 3 23 30 44 60 20 31 53 73 72 95 19 22 35 43 35 48 0 12 27 8
28 -5 1 -7 3 -53 6 -103 7 -108 15 -198 20 -202 2 -2 10 3 19 11 8 8 17 13 19
10 3 -2 11 2 18 11 7 8 18 15 24 15 7 0 21 8 32 18 23 20 52 39 74 49 8 3 41
24 72 45 l57 38 57 -52 c31 -29 71 -66 88 -83 31 -29 74 -65 144 -123 19 -15
44 -37 57 -49 13 -13 28 -23 34 -23 5 0 11 -4 13 -8 2 -5 41 -38 88 -73 47
-35 87 -67 88 -71 2 -5 10 -8 18 -8 8 0 14 -4 14 -8 0 -4 15 -16 33 -27 17
-10 37 -24 44 -29 27 -24 39 -33 48 -37 29 -13 85 -52 85 -60 0 -5 3 -8 7 -7
5 1 46 -23 93 -53 114 -74 258 -159 270 -159 6 0 10 -4 10 -10 0 -5 4 -10 8
-10 5 0 61 -29 125 -65 64 -36 122 -66 129 -67 7 -2 15 -6 18 -9 11 -14 289
-143 299 -139 2 1 7 -2 10 -7 8 -11 298 -133 317 -133 8 0 14 -5 14 -11 0 -5
4 -8 8 -5 5 3 19 0 33 -7 13 -7 42 -18 64 -25 22 -7 49 -17 60 -22 26 -12 105
-40 128 -45 28 -6 90 -27 107 -35 9 -4 31 -11 50 -15 19 -4 40 -10 45 -13 6
-4 15 -7 21 -8 6 -1 38 -10 70 -19 33 -9 66 -19 74 -21 8 -2 33 -8 55 -14 52
-14 86 -22 105 -25 8 -1 22 -5 30 -8 15 -6 146 -35 186 -42 11 -1 45 -8 75
-14 30 -6 65 -13 79 -15 14 -3 25 -5 25 -6 0 -1 18 -3 40 -6 22 -2 51 -7 65
-10 14 -4 41 -8 60 -10 48 -6 95 -12 95 -14 0 -1 14 -3 30 -5 17 -1 50 -5 75
-8 25 -4 77 -9 115 -12 39 -4 84 -8 100 -11 102 -12 288 -19 555 -19 309 0
473 7 755 30 39 4 99 8 135 11 81 6 131 11 195 19 28 3 75 8 105 10 30 2 55 5
55 6 0 1 25 4 105 13 30 3 69 8 85 11 61 10 111 16 138 18 15 1 27 4 27 7 0 3
17 6 38 6 20 1 46 4 57 7 11 3 42 8 69 11 27 4 53 9 57 11 3 3 26 7 50 10 49
6 71 10 144 25 28 6 59 12 70 14 11 2 52 11 90 20 39 9 81 18 95 20 14 3 25 5
25 6 0 1 7 3 15 5 8 1 33 7 55 13 22 6 51 13 65 16 39 8 210 55 260 72 25 9
53 17 63 19 26 6 313 102 350 119 18 7 79 32 137 56 110 45 391 177 400 189 3
3 10 7 16 8 22 4 315 184 342 210 8 7 23 18 34 24 11 6 27 17 36 24 193 156
244 199 249 211 3 8 9 14 14 14 9 0 149 142 196 199 16 19 43 50 60 70 18 20
33 42 33 49 0 6 4 12 9 12 5 0 23 22 41 49 49 78 50 78 120 32 34 -23 64 -41
67 -41 3 0 21 -11 39 -25 47 -36 45 -40 59 175 2 36 4 81 4 100 l1 35 50 -55
c53 -58 180 -241 180 -259 0 -6 5 -11 10 -11 6 0 10 -4 10 -8 0 -4 16 -37 35
-72 l35 -65 -5 55 c-8 104 -15 195 -20 248 -3 28 -7 78 -10 110 -3 31 -8 78
-10 105 -8 77 -15 148 -21 207 -2 30 -7 75 -10 100 -11 92 -16 136 -17 172 -1
21 -4 38 -7 38 -3 0 -6 15 -6 33 -2 34 -12 126 -19 167 -2 14 -7 48 -10 75 -3
28 -8 70 -11 95 -4 25 -7 60 -8 77 0 18 -3 33 -6 33 -3 0 -7 15 -9 32 -4 45
-8 73 -10 73 -2 0 -4 16 -6 35 -2 19 -5 47 -7 63 -1 15 -5 27 -8 27 -3 0 -5
12 -6 28 0 15 -4 47 -8 72 -6 41 -11 87 -21 190 -4 45 -15 138 -21 170 -2 14
-6 45 -10 70 -3 25 -7 56 -10 70 -10 59 -26 157 -31 185 -2 17 -6 39 -8 50 -6
27 -34 165 -39 190 -2 11 -9 39 -14 63 -6 23 -10 45 -11 47 -1 3 -1 6 -2 8 -1
3 -6 30 -12 62 -4 17 -11 48 -18 70 -6 22 -12 51 -14 65 -2 14 -4 26 -5 28 -2
1 -4 7 -5 12 -1 6 -3 11 -4 13 -2 1 -4 11 -6 23 -3 11 -12 47 -20 80 -9 32
-18 66 -20 74 -19 74 -39 147 -59 210 -23 74 -49 160 -51 170 -5 23 -37 129
-44 145 -11 27 -31 90 -36 112 -2 10 -9 32 -16 48 -6 17 -14 39 -16 50 -1 11
-7 29 -12 40 -6 11 -40 106 -77 210 -36 105 -75 213 -86 240 -11 28 -21 55
-23 60 -1 6 -6 19 -10 30 -5 11 -17 43 -28 70 -10 28 -24 61 -30 75 -6 14 -11
27 -12 30 -6 18 -20 52 -40 95 -12 28 -36 84 -54 125 -37 86 -43 75 74 141 90
51 109 63 115 70 3 3 17 12 32 20 43 22 202 122 216 135 6 7 21 16 32 19 11 3
20 10 20 14 0 4 19 18 43 31 23 13 44 27 47 31 3 4 30 24 60 45 69 47 71 49
126 106 48 48 139 168 128 168 -3 0 3 15 14 33 16 28 49 114 58 152 12 50 35
163 39 188 28 209 27 664 0 797 -12 55 -27 126 -31 150 -3 14 -23 80 -45 147
-117 358 -346 674 -645 889 -34 24 -67 44 -73 44 -6 0 -11 3 -11 8 0 4 -9 12
-20 17 -138 70 -182 89 -255 112 -67 20 -219 45 -287 47 -10 0 -18 3 -18 6 0
8 -405 5 -418 -4 -7 -4 -12 -2 -12 4 0 6 -5 8 -12 3 -7 -4 -26 -8 -43 -10 -16
-1 -57 -4 -90 -7 -33 -3 -61 -6 -62 -7 -5 -3 -17 -5 -83 -14 -36 -5 -67 -9
-70 -10 -3 -1 -25 -5 -50 -10 -52 -10 -58 -12 -65 -15 -6 -3 -9 -4 -57 -13
-21 -5 -40 -8 -43 -7 -3 0 -19 -7 -35 -15 -17 -9 -30 -14 -30 -11 0 9 -164
-66 -205 -94 -50 -35 -137 -129 -224 -245 -33 -44 -64 -85 -69 -91 -5 -5 -14
-20 -21 -31 -6 -12 -17 -27 -24 -35 -10 -10 -100 -141 -222 -326 -2 -2 -52 13
-85 26 -8 3 -18 6 -22 6 -3 1 -10 4 -14 9 -4 4 -18 7 -31 7 -12 0 -23 4 -23 8
0 4 -12 9 -27 10 -15 1 -29 5 -32 10 -3 4 -10 8 -16 8 -5 1 -53 14 -105 29
-52 15 -103 29 -112 31 -10 2 -26 6 -35 9 -51 13 -105 26 -168 40 -38 9 -79
18 -90 21 -11 3 -33 7 -50 10 -62 11 -70 12 -85 18 -15 5 -58 13 -120 21 -19
3 -46 7 -60 10 -14 3 -43 8 -65 11 -22 3 -53 7 -70 10 -80 13 -102 16 -130 19
-16 2 -52 7 -80 10 -27 3 -67 8 -87 10 -20 2 -42 7 -49 11 -8 5 -9 3 -4 -6 5
-9 4 -11 -3 -6 -21 13 -205 28 -359 30 -46 1 -83 3 -83 6 0 6 -62 5 -290 -5
-188 -9 -265 -13 -265 -15 0 -1 -25 -4 -55 -5 -66 -5 -151 -13 -205 -20 -53
-8 -123 -17 -160 -20 -16 -2 -30 -4 -30 -5 0 -1 -11 -3 -25 -6 -22 -4 -192
-38 -243 -49 -66 -14 -330 -93 -377 -112 -8 -3 -17 -7 -20 -8 -6 -2 -41 -16
-120 -48 -30 -12 -59 -22 -65 -22 -5 0 -26 47 -46 105 -20 58 -45 123 -55 145
-10 22 -17 43 -16 48 1 4 -3 7 -8 7 -6 0 -10 7 -10 15 0 8 -22 53 -50 101 -27
48 -50 88 -50 90 0 5 -47 59 -88 100 -75 75 -199 147 -367 214 -58 23 -149 50
-220 66 -11 2 -31 6 -45 9 -22 5 -59 12 -175 32 -35 6 -420 14 -426 9z"/>
</g>
</svg>
