<svg xmlns="http://www.w3.org/2000/svg" viewBox="0 0 491.74 123.11"><defs><style>.cls-1{fill:#aa9887;}.cls-2{fill:#ddccc0;}.cls-3{fill:#fff;}.cls-4{fill:#aecc7a;}.cls-5,.cls-6,.cls-7{fill:#010101;isolation:isolate;}.cls-5{opacity:0.6;}.cls-6{opacity:0.45;}.cls-7{opacity:0.8;}</style></defs><title>light-theme-small-logo</title><g id="Ebene_2" data-name="Ebene 2"><g id="color_1" data-name="color 1"><g id="bear"><path class="cls-1" d="M16.74,38.35s-8.33,0-11.66-5.67c-1.82-3.09-1-8.5-1-8.5s3.66,3,5.16,1.67-.66-6.67-.66-6.67,2.44-.33,2.33-2c-.17-2.67-4.5-4.66-4.5-4.66A16,16,0,0,1,19.74,3.85c18-1.5,19,12.17,19,12.17a72.27,72.27,0,0,1,24.67-3.67,83.34,83.34,0,0,1,26.5,5.5s3.14-8,7.5-10.83c4.83-3.17,14.17-4.34,21.17.33s12,16.33,6.83,25.5-13.5,7.83-13.5,7.83,13.5,30.17,12.67,47.84S105.41,116.68,96.41,119s-42.95,9.61-71.33-6.67C3.58,100,4.08,89.52,8.41,67.18S16.74,38.35,16.74,38.35Z" transform="translate(0 -2.15)"/><path class="cls-2" d="M43.08,119.39c-1.22-.4-13.38-21.38-13-26.5S38.83,72.64,45.7,70.76,77,67.39,83.83,70s17.62,17.38,17.87,22.38-6.75,23.5-9.25,25.87S53.33,122.76,43.08,119.39Z" transform="translate(0 -2.15)"/><path class="cls-3" d="M54.08,77.35a42.77,42.77,0,0,1,5.16-1.5c1.34-.17,5.5-.5,5.5-.5l-2.83,8Z" transform="translate(0 -2.15)"/><path d="M118.75,51.35c-7.7-20.66-16.34-29.88-26.34-35C82.16,11.1,66.13,9.67,60.25,10c-6.38.38-15.17.75-24.67,6.5s-16.17,11-24.33,32.84C4.9,66.31-1,92.59,6.08,101c5.83,6.93,28.36,25.55,61.17,24.17,45.92-1.92,53.91-18.91,57.08-23.67C128.75,94.89,128.37,77.2,118.75,51.35ZM95,115.76c-11.87,3.5-34,6.09-50.62,1.25C25.1,111.41,11.91,99.35,9.58,95.18,6,88.7,9.85,60.48,21.41,36.68,30.08,18.85,49.7,14.89,61.58,14.51c9.24-.29,37,.67,48.67,28.34C116,56.42,125.37,85,121.41,94.51,118.91,100.51,108.87,111.66,95,115.76Z" transform="translate(0 -2.15)"/><path d="M36.58,18.6s-.5-8.21-5.17-10.84c-7.7-4.33-17.7-1-19.33-.08-1.88,1.08-4,4.46-4,4.46s3.5,1.87,3.67,4.79a3.09,3.09,0,0,1-2,2.92s2.16,4.5.5,7C8.81,29,5,26.35,5,26.35S4.74,31,7.91,33c6,3.75,10.75,3.17,10.75,3.17l-2.25,9.17s-7.33-3.5-12-9C1.17,32.52,2.45,21,2.45,21S6.16,24.6,7.66,24.6s-.33-6.84-.33-6.84,2.92.17,1.5-1.66a8.47,8.47,0,0,0-4.08-2.59s4.33-8.16,8.83-9.75c8-2.79,17-1.85,22.25,2,3.37,2.5,5.33,11.17,5.33,11.17Z" transform="translate(0 -2.15)"/><path d="M32.33,46.64l-6,7.62,7.25,2.63.5,3,7.37,3.5-8.87,6.12,2,1.13S44,68,46.83,67.39,56,65.64,56,65.64l5.25-4.5-.37-8.75-2.13,1.5L58,59.64s-6.12-1.38-13.5-3.5S31.33,53,31.33,53l2.12-4.62Z" transform="translate(0 -2.15)"/><path d="M39.41,119.85s-12.07-21-12-25.5c.17-10.67,11.84-24.17,18.34-25.5,10.06-2.07,35.87-2.7,43.5,1.83,5.33,3.17,15.33,17.67,14.33,23.17-2,11.18-8.83,24.33-8.83,24.33l-6.17,1.5S99.41,102,99.41,92.85c0-5.6-11.33-19.84-15.83-21.17-6.75-2-29.3-1.27-34-.33-3.34.66-4.5-.17-10.17,7-3.41,4.31-7.66,11-7.5,14.66.35,7.66,14,27.17,14,27.17Z" transform="translate(0 -2.15)"/><polygon points="63.24 85.2 63.08 98.87 66.91 97.37 67.08 85.31 63.24 85.2"/><path d="M55.83,107.76l2-1.18s0-1.69.69-1.94c1.95-.73,24.23-9.54,26.06-10,.91-.25,1.5-.65,2.25.41.43.62,1.87,3.19,1.87,3.19L91,98s-3.11-8.66-4.61-8.16-16.5,6.66-21.16,8.83-7.57,3.54-8.73,4.21C55.64,103.39,55.83,107.76,55.83,107.76Z" transform="translate(0 -2.15)"/><path d="M75,102.56s3.33-2.63,4.85-3,4.48,2.22,4.48,2.22l-2.41.31s-1.91-.64-3-.06-3.89,2.09-3.89,2.09Z" transform="translate(0 -2.15)"/><path d="M28.39,23.39s2.3-3.06-1.31-7A7.4,7.4,0,0,0,18,15.26c-1.62,1-4,4.38-4,4.38a9.61,9.61,0,0,0,2.38,3.5,5.59,5.59,0,0,0,4.25,1s-.6,1.26-3.75,2.12A6.14,6.14,0,0,1,13.7,26s-.62,3.63,6.63,5.13C24.57,32,28.39,23.39,28.39,23.39Z" transform="translate(0 -2.15)"/><path d="M92.79,18.6s2.39-8.88,6-10.59c7.66-3.66,15-2,17.16-.83s10.5,7.83,10,17.33c-.09,1.82-.5,7.5-4.83,9.5a28.2,28.2,0,0,1-10,2.5L113,45.35a87.19,87.19,0,0,0,11.46-7c3.67-2.67,4.5-6.66,4.5-13.67,0-11.17-7-18.67-13.12-20.92C110.58,1.85,98.7,3,95.25,5.68,93.08,7.35,87.58,16,87.58,16Z" transform="translate(0 -2.15)"/><path d="M101,23.39s-1.84-3.27,1.78-7.21c2.75-3,8.21-2.47,10.33-1a10.9,10.9,0,0,1,4.67,7.5,7.69,7.69,0,0,1-4.34,1.67,21.41,21.41,0,0,1-4.62-.21,8.52,8.52,0,0,0,4,3,8.38,8.38,0,0,0,3.66,0s-1,3.33-7.37,4C104.72,31.56,101,23.39,101,23.39Z" transform="translate(0 -2.15)"/><path d="M3.75,79.51C1.29,89,0,107.57,0,107.57a24.9,24.9,0,0,1,3.25-5.16C4.8,100.82,6,99.49,6,99.49Z" transform="translate(0 -2.15)"/><path d="M5.4,85.76C3,95.26,4.25,105.85,4.25,105.85l5.33-3.34Z" transform="translate(0 -2.15)"/><path d="M125.83,79.51c2.45,9.5,3.75,28.06,3.75,28.06a25.37,25.37,0,0,0-3.25-5.16c-1.55-1.59-2.8-2.92-2.8-2.92Z" transform="translate(0 -2.15)"/><path d="M124.17,85.76c2.45,9.5,1.16,20.09,1.16,20.09L120,102.51Z" transform="translate(0 -2.15)"/><path d="M61.41,121.35c5.5-1.5,8.33-7,8.33-7a7.63,7.63,0,0,1-.16,5.66C68.24,122.85,61.41,121.35,61.41,121.35Z" transform="translate(0 -2.15)"/><path d="M6.7,68.64a64.89,64.89,0,0,0,6.13,9.87c2.87,4,9.25,9.5,9.25,9.5l-.75-3a92.5,92.5,0,0,1-6.75-9.62C11.33,70,8.24,61,8.24,61Z" transform="translate(0 -2.15)"/><path d="M20.24,76.35s-4.2-3.17-7.58-.17C9.58,78.92,11,84.31,11,84.31l1.08-1S12.27,79.67,14,78a5,5,0,0,1,5.17-.87Z" transform="translate(0 -2.15)"/><path d="M22.2,81.45a4.27,4.27,0,0,0-5.37.31c-2.23,2.07-.56,6.5-.56,6.5l.93-1.06a4.84,4.84,0,0,1,.94-4.06,2.57,2.57,0,0,1,3.13-.81Z" transform="translate(0 -2.15)"/><path d="M75.08,75.39A27.39,27.39,0,0,0,71.91,74l-4.5,5.17,1.84-5.83a55.51,55.51,0,0,0-9.84.66,30.67,30.67,0,0,0-8.5,2.84s2.75,3.3,5.17,6.1a97.87,97.87,0,0,0,9,8.56s3.12-3.59,6.06-6.81c3.5-3.83,6.88-7.31,6.88-7.31A26.47,26.47,0,0,0,75.08,75.39ZM61,82l-4.62-4a35.18,35.18,0,0,1,3.39-1.11,30,30,0,0,1,3.8-.71Z" transform="translate(0 -2.15)"/><path d="M75.83,49.14a15.08,15.08,0,0,1,1.83-2.4A143.21,143.21,0,0,1,60.41,25.51a100.61,100.61,0,0,1-7-12.83L46.91,14s4.87,8.71,13.5,21.13c2.46.94,6.17,2.12,6.17,2.12l-3.45,1.68A98.76,98.76,0,0,0,74.24,51.65C74.65,51,75.23,50.1,75.83,49.14Z" transform="translate(0 -2.15)"/><path d="M120.91,68a14.91,14.91,0,0,1-11-.33c-2.47-1-5.13-2.23-7.84-3.61-.22.72-.43,1.39-.62,1.88a15.57,15.57,0,0,1-1.93,3.34q2.64,1.29,5.23,2.39c13.56,5.77,17.33,1,17.33,1Z" transform="translate(0 -2.15)"/><path d="M84.75,70.68a31.2,31.2,0,0,0-7.5-1.17c-1.3,0-4.92.38-4.92.38-.27-.2-6.23-4.55-3-15.92C71.41,46.59,79.26,41,87.58,41a18.88,18.88,0,0,1,10.63,3.34c8.4,5.74,11,13.31,7.35,21.32a21.41,21.41,0,0,1-11,11l-.87.32S88.08,71.85,84.75,70.68Z" transform="translate(0 -2.15)"/><path class="cls-4" d="M74.71,68s-5.29-3.46-2.6-13c2.34-8.24,14.31-14.62,24.11-7.93s7.87,14,6.22,17.57A18.13,18.13,0,0,1,93.26,74s-5.38-3.71-8.52-4.67C82,68.45,74.71,68,74.71,68Z" transform="translate(0 -2.15)"/><path d="M74,60.13a11.53,11.53,0,0,1,7-11.5c10.11-4.51,19,2.48,19.75,8.86,1,8.27-4.36,10.42-4.36,10.42a9.69,9.69,0,0,0,3-10.9c-2.24-6.33-9.19-9-14.58-8.08A12.33,12.33,0,0,0,74,60.13Z" transform="translate(0 -2.15)"/><path id="path3078" class="cls-5" d="M85.59,57.46l-3.91,4.59,6.35.61,3.59-5.28Z" transform="translate(0 -2.15)"/><path id="path3094" class="cls-6" d="M81.68,62.05l6.35.61-2.44-5.2-2.81-6Z" transform="translate(0 -2.15)"/><path id="path3110" class="cls-7" d="M82.78,51.46l2.81,6L88,62.66l3.59-5.28Z" transform="translate(0 -2.15)"/><path id="path3126" class="cls-6" d="M82.12,63l8.26,4.68L88.47,63.6Z" transform="translate(0 -2.15)"/><path id="path3142" class="cls-7" d="M88.47,63.6l1.91,4.07,1.69-9.35Z" transform="translate(0 -2.15)"/></g><path d="M143.61,19h-3.5V11.25H162a11.61,11.61,0,0,1,7.56,2.26c1.85,1.5,2.78,3.79,2.78,6.85V34.49c0,3.23-1.46,5.17-4.36,5.83A5.13,5.13,0,0,1,171.84,42a5.92,5.92,0,0,1,1.4,4.07V61.75q0,4.44-2.05,6.78c-1.36,1.56-3.87,2.34-7.51,2.34H143.61ZM157.7,37c1.65,0,2.76-.33,3.33-1a4.15,4.15,0,0,0,.86-2.8V22.5a4.29,4.29,0,0,0-.77-2.75c-.52-.63-1.6-.95-3.25-.95h-3.76V37Zm.68,26.11c1.88,0,3-.27,3.42-.82a5.64,5.64,0,0,0,.6-3.12V48a4.1,4.1,0,0,0-1-2.92A4.46,4.46,0,0,0,158,43.93h-3.85V63.06Z" transform="translate(0 -2.15)"/><path d="M179.91,11.25h24.17V19H190.5v13h10.93v7.8H190.5V63h13.58v7.89H179.91Z" transform="translate(0 -2.15)"/><path d="M215.61,19h-5V11.25h22.72l6.92,59.62H230l-.59-7.15h-9.4l-.68,7.15H209.12Zm13,37.2-3.93-37.45-3.93,37.45Z" transform="translate(0 -2.15)"/><path d="M245.84,19h-3.5V11.25h21a13.09,13.09,0,0,1,7.78,2.09q2.89,2.1,2.9,6.78V38.27a8.32,8.32,0,0,1-1.62,5.42,6.13,6.13,0,0,1-4.62,2.13l8.63,25.05H264.89l-8.54-26.36V70.87H245.84Zm14.78,19.71c1.59,0,2.58-.21,2.95-.62a3.77,3.77,0,0,0,.55-2.42V22.33a4.28,4.28,0,0,0-.68-2.66c-.46-.58-1.51-.87-3.16-.87h-3.93V38.68Z" transform="translate(0 -2.15)"/><path d="M282.57,19h-3.5V11.25h21a13.08,13.08,0,0,1,7.77,2.09q2.91,2.1,2.91,6.78V38.27a8.32,8.32,0,0,1-1.63,5.42,6.11,6.11,0,0,1-4.61,2.13l8.63,25.05H301.62l-8.54-26.36V70.87H282.57Zm14.78,19.71c1.59,0,2.57-.21,2.94-.62a3.76,3.76,0,0,0,.56-2.42V22.33a4.21,4.21,0,0,0-.69-2.66c-.45-.58-1.51-.87-3.16-.87h-3.92V38.68Z" transform="translate(0 -2.15)"/><path d="M325.44,70.87a25.13,25.13,0,0,1-3.88-.25,4.44,4.44,0,0,1-2.35-1,4.21,4.21,0,0,1-1.2-2.17,16.56,16.56,0,0,1-.34-3.7V18.39A16.52,16.52,0,0,1,318,14.7a4.24,4.24,0,0,1,1.2-2.18,4.43,4.43,0,0,1,2.35-1,23.93,23.93,0,0,1,3.88-.25h13.24a24.78,24.78,0,0,1,3.93.25,4.75,4.75,0,0,1,2.44,1,4.15,4.15,0,0,1,1.24,2.18,16.52,16.52,0,0,1,.34,3.69V63.72a17.69,17.69,0,0,1-.3,3.61,4.12,4.12,0,0,1-1.11,2.18A4.37,4.37,0,0,1,343,70.58a19.43,19.43,0,0,1-3.72.29Zm8.2-7.39a3.65,3.65,0,0,0,2.1-.37,3.29,3.29,0,0,0,.38-2V21a3.28,3.28,0,0,0-.38-2,3.57,3.57,0,0,0-2.1-.37h-3.07a3.51,3.51,0,0,0-2.09.37,3.19,3.19,0,0,0-.39,2V61.09c0,1.1.13,1.77.39,2a3.59,3.59,0,0,0,2.09.37Z" transform="translate(0 -2.15)"/><path d="M351.84,11.25H362.6l4.18,43.85,5.64-43.93h7.77l5.64,43.93L390,11.25h10.77l-9,59.62h-11l-4.53-36.3-4.44,36.3h-11Z" transform="translate(0 -2.15)"/><path d="M406.16,11.25h10.68V70.87H406.16Z" transform="translate(0 -2.15)"/><path d="M425.21,19H421.7V11.25h14l9.74,29.48V11.25H456V70.87h-8.79L435.71,37.44V70.87h-10.5Z" transform="translate(0 -2.15)"/><path d="M481.83,70.87h-8.37a26.36,26.36,0,0,1-4.35-.33,9.51,9.51,0,0,1-3.38-1.19A6,6,0,0,1,463.55,67a8.23,8.23,0,0,1-.76-3.78V19q0-4.51,2.64-6.12a14.39,14.39,0,0,1,7.43-1.6h17.77V19H477.31a6.49,6.49,0,0,0-3.29.53c-.49.36-.73,1.17-.73,2.42v38.6a6.2,6.2,0,0,0,.13,1.44,1.22,1.22,0,0,0,.55.78,2.6,2.6,0,0,0,1.16.28c.48,0,1.15,0,2,0h4.19V39.74h-3.07v-7.8h13.49V69.39l-9.91,3.36Z" transform="translate(0 -2.15)"/><path d="M149.3,101.34A4.81,4.81,0,0,0,151,101l.22.7a3.29,3.29,0,0,1-.93.28,7.24,7.24,0,0,1-1,.07h-.07a2.59,2.59,0,0,1-2.44-1,4,4,0,0,1-.46-1.7c0-.35,0-.73,0-1.13s0-.8,0-1.17a7.45,7.45,0,0,1,.13-1,3.17,3.17,0,0,1,.3-.82,1.94,1.94,0,0,1,.52-.62,3.12,3.12,0,0,1,1.93-.52,6.56,6.56,0,0,1,1.32.11,4.34,4.34,0,0,1,.67.17l-.23.81a5.09,5.09,0,0,0-1.7-.35,2.82,2.82,0,0,0-1.09.17,1.25,1.25,0,0,0-.6.56,6,6,0,0,0-.37,2.57v.38a4.23,4.23,0,0,0,.4,2.18,1.81,1.81,0,0,0,1.64.69Z" transform="translate(0 -2.15)"/><path d="M161.92,96.63a1.94,1.94,0,0,0-1.33.66V102h-.85V95.89h.74l.09.81a2.1,2.1,0,0,1,.51-.58,1.49,1.49,0,0,1,.46-.26,1.71,1.71,0,0,1,.49-.07,2.35,2.35,0,0,1,.57.09l-.07.81A2.8,2.8,0,0,0,161.92,96.63Z" transform="translate(0 -2.15)"/><path d="M171.1,103.44a2,2,0,0,0,.61.14,1.91,1.91,0,0,0,.32,0,.3.3,0,0,0,.15,0,.57.57,0,0,0,.26-.32,8,8,0,0,0,.38-1.14l-2.35-6.16h.95l1.58,4.48.24.79.22-.79,1.4-4.48h.89l-2.57,7.52a1.21,1.21,0,0,1-1.29.88,2.39,2.39,0,0,1-1-.18Z" transform="translate(0 -2.15)"/><path d="M185.28,101.61v2.69h-.85V95.89h.69l.1.63a4,4,0,0,1,1.56-.66,3.54,3.54,0,0,1,.75-.07,2.29,2.29,0,0,1,.73.11,1.4,1.4,0,0,1,.52.3,1.29,1.29,0,0,1,.31.45,2.61,2.61,0,0,1,.17.58,9,9,0,0,1,.07,1.37v.12a10.36,10.36,0,0,1-.08,1.65,3.54,3.54,0,0,1-.21.76,1.59,1.59,0,0,1-.37.51,2.22,2.22,0,0,1-1.5.43A3.94,3.94,0,0,1,185.28,101.61Zm0-.7a4.27,4.27,0,0,0,1.82.4,1.46,1.46,0,0,0,.91-.23,2.06,2.06,0,0,0,.44-1.48c0-.25,0-.55,0-.88v-.11a3.9,3.9,0,0,0-.2-1.57,1,1,0,0,0-.95-.46h-.08a3.72,3.72,0,0,0-1.56.38,3.44,3.44,0,0,0-.39.21Z" transform="translate(0 -2.15)"/><path d="M201.56,101.68a3.64,3.64,0,0,1-1.53.39c-.86,0-1.34-.36-1.46-1.09a6.5,6.5,0,0,1,0-.76V96.6h-.73V96l.73-.08.14-1.39h.71v1.39h1.77v.71h-1.77v3.61a2.13,2.13,0,0,0,.09.8.69.69,0,0,0,.67.32,2.64,2.64,0,0,0,1.13-.31Z" transform="translate(0 -2.15)"/><path d="M209.89,99a7.29,7.29,0,0,1,.12-1.62,2.41,2.41,0,0,1,.29-.73,1.32,1.32,0,0,1,.46-.45,3.31,3.31,0,0,1,1.72-.36c1.1,0,1.8.27,2.11.81a3.12,3.12,0,0,1,.33,1.39c0,.28,0,.59,0,.93s0,.66,0,1a4.49,4.49,0,0,1-.13.79,2.7,2.7,0,0,1-.27.62,1.61,1.61,0,0,1-.46.44,3.18,3.18,0,0,1-1.64.34c-1.08,0-1.79-.26-2.12-.79a2.88,2.88,0,0,1-.36-1.39C209.9,99.6,209.89,99.29,209.89,99Zm1.39,2.13a1.4,1.4,0,0,0,.46.21,3.82,3.82,0,0,0,.76.06,2.2,2.2,0,0,0,.82-.13,1,1,0,0,0,.49-.45A2,2,0,0,0,214,100c0-.32,0-.7,0-1.12s0-.79,0-1.08a1.8,1.8,0,0,0-.2-.71c-.2-.37-.66-.55-1.36-.55s-1.23.18-1.46.55a1.8,1.8,0,0,0-.21.72,9,9,0,0,0-.05.94c0,.34,0,.63,0,.87a4,4,0,0,0,.06.64,2,2,0,0,0,.16.49A1,1,0,0,0,211.28,101.08Z" transform="translate(0 -2.15)"/><path d="M238.75,96.16c0,1-.39,1.62-1.19,1.73v0a1.65,1.65,0,0,1,1.1.41,1.72,1.72,0,0,1,.42,1.25,3.27,3.27,0,0,1-.19,1.26,1.56,1.56,0,0,1-.51.7,2.89,2.89,0,0,1-1.79.44H234V94.18c1-.09,1.72-.13,2.34-.13a4.53,4.53,0,0,1,1.35.14,1.58,1.58,0,0,1,.67.4A2.4,2.4,0,0,1,238.75,96.16ZM236,97.64a2.5,2.5,0,0,0,1.43-.29,1.4,1.4,0,0,0,.45-1.21V96a1.34,1.34,0,0,0-.3-1,1.48,1.48,0,0,0-1-.28l-1,0-.67,0v2.81Zm.7,3.61a1.59,1.59,0,0,0,1.07-.29,1.68,1.68,0,0,0,.41-1.3c0-.72-.27-1.14-.8-1.26a2.12,2.12,0,0,0-.52-.06h-2v2.91Z" transform="translate(0 -2.15)"/><path d="M247.84,99a7.29,7.29,0,0,1,.12-1.62,2.41,2.41,0,0,1,.29-.73,1.41,1.41,0,0,1,.46-.45,3.31,3.31,0,0,1,1.72-.36c1.1,0,1.8.27,2.12.81a3.13,3.13,0,0,1,.32,1.39c0,.28,0,.59,0,.93s0,.66,0,1a3.72,3.72,0,0,1-.13.79,2,2,0,0,1-.27.62,1.49,1.49,0,0,1-.46.44,3.16,3.16,0,0,1-1.64.34,2.34,2.34,0,0,1-2.12-.79,2.88,2.88,0,0,1-.36-1.39C247.85,99.6,247.84,99.29,247.84,99Zm1.39,2.13a1.4,1.4,0,0,0,.46.21,3.86,3.86,0,0,0,.77.06,2.15,2.15,0,0,0,.81-.13,1,1,0,0,0,.49-.45A2,2,0,0,0,252,100c0-.32.05-.7.05-1.12s0-.79,0-1.08a2,2,0,0,0-.19-.71c-.21-.37-.66-.55-1.37-.55s-1.23.18-1.45.55a1.65,1.65,0,0,0-.22.72,9.18,9.18,0,0,0,0,.94c0,.34,0,.63,0,.87a3.91,3.91,0,0,0,.07.64,1.66,1.66,0,0,0,.15.49A1,1,0,0,0,249.23,101.08Z" transform="translate(0 -2.15)"/><path d="M264.3,96.63a2,2,0,0,0-1.33.66V102h-.85V95.89h.75l.08.81a2.12,2.12,0,0,1,.52-.58,1.47,1.47,0,0,1,.45-.26,1.81,1.81,0,0,1,.49-.07,2.42,2.42,0,0,1,.58.09l-.08.81A2.74,2.74,0,0,0,264.3,96.63Z" transform="translate(0 -2.15)"/><path d="M275.8,96.63a2,2,0,0,0-1.33.66V102h-.85V95.89h.75l.08.81a2.12,2.12,0,0,1,.52-.58,1.47,1.47,0,0,1,.45-.26,1.76,1.76,0,0,1,.49-.07,2.42,2.42,0,0,1,.58.09l-.08.81A2.74,2.74,0,0,0,275.8,96.63Z" transform="translate(0 -2.15)"/><path d="M284.94,99a7.29,7.29,0,0,1,.12-1.62,2.41,2.41,0,0,1,.29-.73,1.41,1.41,0,0,1,.46-.45,3.31,3.31,0,0,1,1.72-.36c1.1,0,1.8.27,2.12.81A3.13,3.13,0,0,1,290,98c0,.28,0,.59,0,.93s0,.66,0,1a3.72,3.72,0,0,1-.13.79,2,2,0,0,1-.27.62,1.61,1.61,0,0,1-.46.44,3.16,3.16,0,0,1-1.64.34,2.34,2.34,0,0,1-2.12-.79,2.88,2.88,0,0,1-.36-1.39C285,99.6,284.94,99.29,284.94,99Zm1.39,2.13a1.4,1.4,0,0,0,.46.21,3.86,3.86,0,0,0,.77.06,2.15,2.15,0,0,0,.81-.13,1,1,0,0,0,.49-.45,2,2,0,0,0,.21-.79c0-.32.05-.7.05-1.12s0-.79,0-1.08a2,2,0,0,0-.19-.71c-.21-.37-.66-.55-1.37-.55s-1.23.18-1.45.55a1.65,1.65,0,0,0-.22.72,9.18,9.18,0,0,0,0,.94c0,.34,0,.63,0,.87a5.59,5.59,0,0,0,.06.64,2,2,0,0,0,.16.49A1,1,0,0,0,286.33,101.08Z" transform="translate(0 -2.15)"/><path d="M298.56,95.89h.91l1.28,4.47.23,1,.17-.81,1.33-4.63h.84l1.31,4.47.22,1,.16-.83,1.27-4.62h.92L305.4,102h-1.12l-1.16-3.9-.24-1.19-.21,1.19-1.15,3.9h-1.07Z" transform="translate(0 -2.15)"/><path d="M316.55,94.44a.68.68,0,0,1-.44-.1.58.58,0,0,1-.16-.44,1.32,1.32,0,0,1,0-.4.32.32,0,0,1,.1-.18.5.5,0,0,1,.37-.13,1.48,1.48,0,0,1,.36,0,.39.39,0,0,1,.19.1.55.55,0,0,1,.12.4,1.9,1.9,0,0,1,0,.4.48.48,0,0,1-.09.19A.68.68,0,0,1,316.55,94.44Zm-.42,1.45H317V102h-.83Z" transform="translate(0 -2.15)"/><path d="M329.44,96.59a4.11,4.11,0,0,0-2,.58V102h-.85V95.89h.75l.08.63a3.38,3.38,0,0,1,1.39-.65,3.56,3.56,0,0,1,.79-.08,2.78,2.78,0,0,1,.8.1,1.18,1.18,0,0,1,.55.34,2.3,2.3,0,0,1,.37,1.51V102h-.85V97.9a1.88,1.88,0,0,0-.15-1,.72.72,0,0,0-.34-.29A1.46,1.46,0,0,0,329.44,96.59Z" transform="translate(0 -2.15)"/><path d="M344.56,101.39a3.51,3.51,0,0,1-2.07.68,1.67,1.67,0,0,1-1.69-.9,3.32,3.32,0,0,1-.29-1.29c0-.24,0-.5,0-.79v-.87a6.61,6.61,0,0,1,.07-.82,2.74,2.74,0,0,1,.17-.67,1.41,1.41,0,0,1,.35-.51,2,2,0,0,1,1.43-.43,4.75,4.75,0,0,1,2.06.52l.08-.42h.74v6a2.91,2.91,0,0,1-.52,1.91,2.38,2.38,0,0,1-1.87.63,5.6,5.6,0,0,1-1.81-.27l-.31-.12.27-.72.27.09a2.72,2.72,0,0,0,.43.14,4.65,4.65,0,0,0,1.16.17,2.49,2.49,0,0,0,.82-.11.88.88,0,0,0,.44-.33,2.49,2.49,0,0,0,.27-1.37Zm0-4.37a4,4,0,0,0-1.78-.46,2.06,2.06,0,0,0-.82.1.81.81,0,0,0-.31.26,1.63,1.63,0,0,0-.17.45,9.13,9.13,0,0,0-.12,1.77v.11a3.3,3.3,0,0,0,.28,1.59,1.11,1.11,0,0,0,1,.47h.08a3.06,3.06,0,0,0,1.44-.39,4,4,0,0,0,.37-.22Z" transform="translate(0 -2.15)"/><path d="M368.41,99.68h-3.14l-.74,2.29h-.9l2.56-7.82h1.19l2.74,7.82h-.93ZM365.5,99h2.67l-1.38-4.11-.16.59Z" transform="translate(0 -2.15)"/><path d="M382.51,101.39a3.48,3.48,0,0,1-2.06.68,1.67,1.67,0,0,1-1.69-.9,3.32,3.32,0,0,1-.29-1.29c0-.24,0-.5,0-.79s0-.58,0-.87,0-.57.06-.82a3.28,3.28,0,0,1,.18-.67,1.41,1.41,0,0,1,.35-.51,2,2,0,0,1,1.43-.43,4.78,4.78,0,0,1,2.06.52l.08-.42h.74v6a2.91,2.91,0,0,1-.51,1.91,2.38,2.38,0,0,1-1.87.63,5.6,5.6,0,0,1-1.81-.27l-.31-.12.27-.72.27.09a2.72,2.72,0,0,0,.43.14,4.65,4.65,0,0,0,1.16.17,2.42,2.42,0,0,0,.81-.11.9.9,0,0,0,.45-.33,2.51,2.51,0,0,0,.26-1.37Zm0-4.37a3.89,3.89,0,0,0-1.77-.46,2.15,2.15,0,0,0-.83.1.86.86,0,0,0-.3.26,1.37,1.37,0,0,0-.17.45,9.13,9.13,0,0,0-.12,1.77v.11a3.3,3.3,0,0,0,.28,1.59,1.11,1.11,0,0,0,1,.47h.08a3.06,3.06,0,0,0,1.44-.39,2.84,2.84,0,0,0,.36-.22Z" transform="translate(0 -2.15)"/><path d="M396.62,101.39a3.5,3.5,0,0,1-2.06.68,1.69,1.69,0,0,1-1.7-.9,3.51,3.51,0,0,1-.29-1.29c0-.24,0-.5,0-.79s0-.58,0-.87a5.17,5.17,0,0,1,.06-.82,3.28,3.28,0,0,1,.18-.67,1.39,1.39,0,0,1,.34-.51,2,2,0,0,1,1.43-.43,4.79,4.79,0,0,1,2.07.52l.08-.42h.73v6a2.85,2.85,0,0,1-.52,1.91,2.36,2.36,0,0,1-1.86.63,5.66,5.66,0,0,1-1.82-.27L393,104l.26-.72.27.09a3.11,3.11,0,0,0,.43.14,4.71,4.71,0,0,0,1.16.17,2.45,2.45,0,0,0,.82-.11.88.88,0,0,0,.44-.33,2.49,2.49,0,0,0,.27-1.37Zm0-4.37a3.93,3.93,0,0,0-1.78-.46,2.09,2.09,0,0,0-.82.1.86.86,0,0,0-.3.26,1.37,1.37,0,0,0-.17.45,9.13,9.13,0,0,0-.12,1.77v.11a3.19,3.19,0,0,0,.28,1.59,1.11,1.11,0,0,0,1,.47h.07a3.06,3.06,0,0,0,1.44-.39,4,4,0,0,0,.37-.22Z" transform="translate(0 -2.15)"/><path d="M409,96.63a1.94,1.94,0,0,0-1.33.66V102h-.85V95.89h.74l.09.81a2.27,2.27,0,0,1,.51-.58,1.49,1.49,0,0,1,.46-.26,1.71,1.71,0,0,1,.49-.07,2.35,2.35,0,0,1,.57.09l-.07.81A2.8,2.8,0,0,0,409,96.63Z" transform="translate(0 -2.15)"/><path d="M423.1,101.65a6.29,6.29,0,0,1-2.34.42,4.5,4.5,0,0,1-1.25-.15,1.55,1.55,0,0,1-1.1-1,6.52,6.52,0,0,1-.25-2v-.26a3.12,3.12,0,0,1,.68-2.28,2.86,2.86,0,0,1,2-.58,2.24,2.24,0,0,1,1.89.68,1.89,1.89,0,0,1,.32.81,5.78,5.78,0,0,1,.08.9c0,.45,0,.79,0,1l-1.29,0H421a14.14,14.14,0,0,1-2-.11,3.23,3.23,0,0,0,.3,1.64,1.6,1.6,0,0,0,1.44.56,5.26,5.26,0,0,0,2.08-.42Zm-.8-3.11v-.49A1.68,1.68,0,0,0,422,96.9a1.58,1.58,0,0,0-1.2-.38,1.78,1.78,0,0,0-1.39.44,2.54,2.54,0,0,0-.36,1.58Z" transform="translate(0 -2.15)"/><path d="M436.33,101.39a3.5,3.5,0,0,1-2.06.68,1.69,1.69,0,0,1-1.7-.9,3.51,3.51,0,0,1-.29-1.29c0-.24,0-.5,0-.79s0-.58,0-.87a5.17,5.17,0,0,1,.06-.82,3.28,3.28,0,0,1,.18-.67,1.39,1.39,0,0,1,.34-.51,2,2,0,0,1,1.43-.43,4.79,4.79,0,0,1,2.07.52l.08-.42h.73v6a2.85,2.85,0,0,1-.52,1.91,2.36,2.36,0,0,1-1.86.63,5.66,5.66,0,0,1-1.82-.27l-.3-.12.26-.72.27.09a3.11,3.11,0,0,0,.43.14,4.71,4.71,0,0,0,1.16.17,2.45,2.45,0,0,0,.82-.11.88.88,0,0,0,.44-.33,2.49,2.49,0,0,0,.27-1.37Zm0-4.37a3.93,3.93,0,0,0-1.78-.46,2.09,2.09,0,0,0-.82.1.86.86,0,0,0-.3.26,1.37,1.37,0,0,0-.17.45,9.13,9.13,0,0,0-.12,1.77v.11a3.19,3.19,0,0,0,.28,1.59,1.11,1.11,0,0,0,1,.47h.07a3.06,3.06,0,0,0,1.44-.39,4,4,0,0,0,.37-.22Z" transform="translate(0 -2.15)"/><path d="M451.2,99.82c0,.67,0,1.38.1,2.11l-.76.06-.12-.71a3.93,3.93,0,0,1-1.72.73,3.69,3.69,0,0,1-.62.06,3.54,3.54,0,0,1-.48,0,1.8,1.8,0,0,1-.4-.1,1.41,1.41,0,0,1-.35-.21,1.13,1.13,0,0,1-.29-.35,2.29,2.29,0,0,1-.26-1.12,3.83,3.83,0,0,1,.1-1,1.32,1.32,0,0,1,.31-.6,1.9,1.9,0,0,1,1.46-.47,7.11,7.11,0,0,1,2.19.38v-.66c0-.74-.3-1.18-.91-1.31a2.79,2.79,0,0,0-.68-.07,5.23,5.23,0,0,0-1.81.35l-.19-.74a4,4,0,0,1,1.33-.31,6.24,6.24,0,0,1,.81,0,4.06,4.06,0,0,1,.92.11,1.86,1.86,0,0,1,.76.37,2,2,0,0,1,.61,1.64Zm-.86-.61a9,9,0,0,0-2.2-.3.87.87,0,0,0-.83.36,1.59,1.59,0,0,0-.14.74,3.84,3.84,0,0,0,.05.71.87.87,0,0,0,.18.36,1,1,0,0,0,.79.27,3.57,3.57,0,0,0,1.71-.44,2.7,2.7,0,0,0,.47-.3C450.35,100.25,450.34,99.78,450.34,99.21Z" transform="translate(0 -2.15)"/><path d="M463.65,101.68a3.68,3.68,0,0,1-1.54.39c-.85,0-1.34-.36-1.45-1.09a4.84,4.84,0,0,1,0-.76V96.6h-.74V96l.74-.08.13-1.39h.71v1.39h1.77v.71h-1.77v3.61a2.13,2.13,0,0,0,.09.8.71.71,0,0,0,.68.32,2.72,2.72,0,0,0,1.13-.31Z" transform="translate(0 -2.15)"/><path d="M472,99a7.29,7.29,0,0,1,.12-1.62,2.7,2.7,0,0,1,.29-.73,1.41,1.41,0,0,1,.46-.45,3.31,3.31,0,0,1,1.72-.36c1.1,0,1.81.27,2.12.81A3.13,3.13,0,0,1,477,98c0,.28,0,.59,0,.93s0,.66,0,1a3.72,3.72,0,0,1-.13.79,2,2,0,0,1-.27.62,1.49,1.49,0,0,1-.46.44,3.16,3.16,0,0,1-1.64.34,2.36,2.36,0,0,1-2.12-.79,2.88,2.88,0,0,1-.36-1.39C472,99.6,472,99.29,472,99Zm1.39,2.13a1.46,1.46,0,0,0,.47.21,3.75,3.75,0,0,0,.76.06,2.15,2.15,0,0,0,.81-.13,1,1,0,0,0,.5-.45,2,2,0,0,0,.21-.79c0-.32,0-.7,0-1.12s0-.79,0-1.08a1.8,1.8,0,0,0-.19-.71c-.21-.37-.66-.55-1.37-.55s-1.23.18-1.45.55a1.8,1.8,0,0,0-.22.72,9.18,9.18,0,0,0,0,.94c0,.34,0,.63,0,.87a3.91,3.91,0,0,0,.07.64,1.66,1.66,0,0,0,.16.49A1,1,0,0,0,473.36,101.08Z" transform="translate(0 -2.15)"/><path d="M488.43,96.63a2,2,0,0,0-1.33.66V102h-.85V95.89H487l.08.81a2.12,2.12,0,0,1,.52-.58,1.39,1.39,0,0,1,.46-.26,1.69,1.69,0,0,1,.48-.07,2.35,2.35,0,0,1,.58.09l-.08.81A2.68,2.68,0,0,0,488.43,96.63Z" transform="translate(0 -2.15)"/></g></g></svg>