<svg xmlns="http://www.w3.org/2000/svg" viewBox="0 0 216.05 186.11"><defs><style>.cls-1{fill:#aa9887;}.cls-2{fill:#ddccc0;}.cls-3{fill:#fff;}.cls-4{fill:#aecc7a;}.cls-5,.cls-6,.cls-7{fill:#010101;isolation:isolate;}.cls-5{opacity:0.6;}.cls-6{opacity:0.45;}.cls-7{opacity:0.8;}</style></defs><title>light-theme-logo</title><g id="Ebene_2" data-name="Ebene 2"><g id="color_1" data-name="color 1"><path d="M21.06,140H19.25v-4.14H30.52a5.81,5.81,0,0,1,3.89,1.21,4.53,4.53,0,0,1,1.43,3.68v7.56a2.82,2.82,0,0,1-2.24,3.13,2.61,2.61,0,0,1,2,.9,3.28,3.28,0,0,1,.73,2.18v8.4a5.5,5.5,0,0,1-1.06,3.63q-1.05,1.26-3.87,1.26H21.06Zm7.26,9.63a2.17,2.17,0,0,0,1.71-.52,2.26,2.26,0,0,0,.44-1.5V141.9a2.34,2.34,0,0,0-.39-1.47,2.08,2.08,0,0,0-1.67-.51H26.47v9.72Zm.35,14c1,0,1.56-.15,1.76-.44a3.13,3.13,0,0,0,.31-1.68v-6a2,2,0,0,0-2.29-2.16h-2v10.26Z" transform="translate(-0.59)"/><path d="M39.76,135.87H52.21V140h-7v7h5.64v4.18H45.21v12.45h7v4.23H39.76Z" transform="translate(-0.59)"/><path d="M58.15,140H55.56v-4.14h11.7l3.56,31.95H65.59L65.28,164H60.44l-.35,3.83H54.81Zm6.69,19.93-2-20.06-2,20.06Z" transform="translate(-0.59)"/><path d="M73.73,140H71.92v-4.14H82.75a6.57,6.57,0,0,1,4,1.12,4.24,4.24,0,0,1,1.5,3.63v9.73a4.53,4.53,0,0,1-.84,2.9A3.09,3.09,0,0,1,85,154.4l4.45,13.42H83.54l-4.4-14.13v14.13H73.73Zm7.61,10.56c.82,0,1.33-.11,1.52-.33a2.11,2.11,0,0,0,.28-1.3v-7.13a2.41,2.41,0,0,0-.35-1.43c-.23-.31-.78-.46-1.63-.46h-2v10.65Z" transform="translate(-0.59)"/><path d="M92.65,140H90.84v-4.14h10.83a6.57,6.57,0,0,1,4,1.12,4.24,4.24,0,0,1,1.5,3.63v9.73a4.53,4.53,0,0,1-.84,2.9A3.09,3.09,0,0,1,104,154.4l4.45,13.42h-5.94l-4.4-14.13v14.13H92.65Zm7.61,10.56c.82,0,1.32-.11,1.52-.33a2.11,2.11,0,0,0,.28-1.3v-7.13a2.41,2.41,0,0,0-.35-1.43c-.23-.31-.78-.46-1.63-.46h-2v10.65Z" transform="translate(-0.59)"/><path d="M114.73,167.82a11.89,11.89,0,0,1-2-.14,2.2,2.2,0,0,1-1.21-.55,2.23,2.23,0,0,1-.61-1.16,8.78,8.78,0,0,1-.18-2V139.7a8.78,8.78,0,0,1,.18-2,2,2,0,0,1,1.82-1.72,13.24,13.24,0,0,1,2-.13h6.82a13.89,13.89,0,0,1,2,.13,2.41,2.41,0,0,1,1.25.55,2.22,2.22,0,0,1,.64,1.17,8.78,8.78,0,0,1,.18,2V164a10,10,0,0,1-.16,1.93,2.23,2.23,0,0,1-.57,1.17,2.2,2.2,0,0,1-1.14.57,9.83,9.83,0,0,1-1.92.16Zm4.23-4a1.83,1.83,0,0,0,1.08-.2,1.81,1.81,0,0,0,.19-1.08V141.11A1.81,1.81,0,0,0,120,140a1.83,1.83,0,0,0-1.08-.2h-1.59a1.77,1.77,0,0,0-1.07.2c-.14.13-.2.49-.2,1.08v21.47c0,.59.06.95.2,1.08a1.77,1.77,0,0,0,1.07.2Z" transform="translate(-0.59)"/><path d="M128.33,135.87h5.54l2.16,23.5,2.9-23.54h4l2.9,23.54,2.16-23.5h5.54l-4.62,31.95h-5.67l-2.34-19.45-2.28,19.45H133Z" transform="translate(-0.59)"/><path d="M156.31,135.87h5.5v31.95h-5.5Z" transform="translate(-0.59)"/><path d="M166.13,140h-1.81v-4.14h7.22l5,15.8v-15.8H182v31.95h-4.54l-5.89-17.91v17.91h-5.41Z" transform="translate(-0.59)"/><path d="M195.3,167.82H191a12.9,12.9,0,0,1-2.25-.18A4.8,4.8,0,0,1,187,167a3.15,3.15,0,0,1-1.12-1.25,4.62,4.62,0,0,1-.39-2V140c0-1.62.45-2.71,1.36-3.28a7.2,7.2,0,0,1,3.83-.86h9.15V140H193a3.23,3.23,0,0,0-1.7.28c-.25.19-.37.63-.37,1.3v20.68a3.93,3.93,0,0,0,.06.77.65.65,0,0,0,.29.42,1.22,1.22,0,0,0,.59.15c.25,0,.6,0,1,0H195v-12.5h-1.58V147h7V167l-5.1,1.81Z" transform="translate(-0.59)"/><path d="M2.48,184.18a3.1,3.1,0,0,0,1.06-.2l.14.44a2.16,2.16,0,0,1-.59.18,4.82,4.82,0,0,1-.61.05h0A1.64,1.64,0,0,1,.9,184a2.57,2.57,0,0,1-.29-1.08c0-.21,0-.45,0-.71s0-.5,0-.73a3,3,0,0,1,.09-.64,2.07,2.07,0,0,1,.18-.53,1.1,1.1,0,0,1,.33-.38,2,2,0,0,1,1.22-.33,3.77,3.77,0,0,1,.83.07c.21,0,.35.08.42.1l-.14.51a3.56,3.56,0,0,0-1.08-.22,1.71,1.71,0,0,0-.68.11.78.78,0,0,0-.38.36,3.71,3.71,0,0,0-.23,1.62v.24a2.67,2.67,0,0,0,.25,1.37,1.13,1.13,0,0,0,1,.43Z" transform="translate(-0.59)"/><path d="M10.44,181.22a1.23,1.23,0,0,0-.85.41v3H9.06v-3.83h.47l.05.51a1.34,1.34,0,0,1,.33-.37.86.86,0,0,1,.29-.16,1.11,1.11,0,0,1,.3,0,1.48,1.48,0,0,1,.37.06l0,.51A2.17,2.17,0,0,0,10.44,181.22Z" transform="translate(-0.59)"/><path d="M16.22,185.51a1.41,1.41,0,0,0,.39.08h.19a.17.17,0,0,0,.1,0,.38.38,0,0,0,.17-.2,4.68,4.68,0,0,0,.23-.72l-1.48-3.88h.6l1,2.82.15.5.14-.5.88-2.82h.56l-1.62,4.74a.75.75,0,0,1-.81.55,1.57,1.57,0,0,1-.64-.11Z" transform="translate(-0.59)"/><path d="M25.16,184.35v1.7h-.54v-5.3h.44l.06.4a2.53,2.53,0,0,1,1-.42,2.44,2.44,0,0,1,.48,0,1.52,1.52,0,0,1,.45.07,1,1,0,0,1,.33.19.84.84,0,0,1,.2.29,1.89,1.89,0,0,1,.11.36,6.09,6.09,0,0,1,0,.87v.07a7.67,7.67,0,0,1-.05,1,2,2,0,0,1-.13.48,1,1,0,0,1-.24.32,1.39,1.39,0,0,1-.94.28A2.42,2.42,0,0,1,25.16,184.35Zm0-.44a2.68,2.68,0,0,0,1.15.25,1,1,0,0,0,.57-.14,1.29,1.29,0,0,0,.27-.93c0-.16,0-.35,0-.56v-.07a2.68,2.68,0,0,0-.12-1,.62.62,0,0,0-.6-.29h-.05a2.28,2.28,0,0,0-1,.24,1.17,1.17,0,0,0-.25.14Z" transform="translate(-0.59)"/><path d="M35.42,184.4a2.36,2.36,0,0,1-1,.25c-.54,0-.84-.23-.91-.69a2.88,2.88,0,0,1,0-.48V181.2h-.46v-.4l.46-.05.08-.88H34v.88h1.12v.45H34v2.27a1.37,1.37,0,0,0,.06.51.44.44,0,0,0,.42.2,1.67,1.67,0,0,0,.72-.2Z" transform="translate(-0.59)"/><path d="M40.67,182.67a4.85,4.85,0,0,1,.07-1,1.61,1.61,0,0,1,.18-.45,1,1,0,0,1,.29-.29,2.13,2.13,0,0,1,1.09-.23c.69,0,1.14.18,1.33.52a1.91,1.91,0,0,1,.21.87c0,.18,0,.37,0,.59a5.74,5.74,0,0,1,0,.6,2.49,2.49,0,0,1-.08.5,1.39,1.39,0,0,1-.17.39,1,1,0,0,1-.29.28,2,2,0,0,1-1,.22,1.47,1.47,0,0,1-1.34-.51,2,2,0,0,1-.23-.87C40.67,183.09,40.67,182.89,40.67,182.67Zm.87,1.35a.86.86,0,0,0,.29.13,2.09,2.09,0,0,0,.48,0,1.31,1.31,0,0,0,.52-.09.63.63,0,0,0,.31-.27,1.35,1.35,0,0,0,.13-.5c0-.21,0-.44,0-.71a6.39,6.39,0,0,0,0-.68,1,1,0,0,0-.12-.45c-.13-.23-.41-.34-.86-.34s-.77.11-.91.34a1,1,0,0,0-.14.45,5.74,5.74,0,0,0,0,.6c0,.21,0,.4,0,.55s0,.28,0,.4a1.25,1.25,0,0,0,.1.31A.79.79,0,0,0,41.54,184Z" transform="translate(-0.59)"/><path d="M58.86,180.92c0,.66-.25,1-.75,1.09h0a1,1,0,0,1,.69.26,1.06,1.06,0,0,1,.26.79,2.33,2.33,0,0,1-.11.79,1,1,0,0,1-.33.44,1.79,1.79,0,0,1-1.12.28H55.85v-4.91c.6-.06,1.09-.08,1.47-.08a2.9,2.9,0,0,1,.85.09.88.88,0,0,1,.42.25A1.47,1.47,0,0,1,58.86,180.92Zm-1.74.93a1.64,1.64,0,0,0,.9-.18.89.89,0,0,0,.29-.77v-.06a.87.87,0,0,0-.19-.62.94.94,0,0,0-.65-.18l-.65,0-.42,0v1.77Zm.44,2.27a1,1,0,0,0,.68-.18,1,1,0,0,0,.25-.81c0-.46-.16-.73-.49-.8a1.24,1.24,0,0,0-.33,0H56.4v1.83Z" transform="translate(-0.59)"/><path d="M64.59,182.67a4.85,4.85,0,0,1,.07-1,1.61,1.61,0,0,1,.18-.45.89.89,0,0,1,.29-.29,2.13,2.13,0,0,1,1.09-.23c.69,0,1.13.18,1.33.52a1.8,1.8,0,0,1,.2.87c0,.18,0,.37,0,.59a5.82,5.82,0,0,1,0,.6,2.49,2.49,0,0,1-.08.5,1.39,1.39,0,0,1-.17.39,1,1,0,0,1-.29.28,2,2,0,0,1-1,.22,1.47,1.47,0,0,1-1.34-.51,1.84,1.84,0,0,1-.23-.87C64.59,183.09,64.59,182.89,64.59,182.67Zm.87,1.35a.86.86,0,0,0,.29.13,2.09,2.09,0,0,0,.48,0,1.23,1.23,0,0,0,.51-.09.61.61,0,0,0,.32-.27,1.35,1.35,0,0,0,.13-.5c0-.21,0-.44,0-.71a6.39,6.39,0,0,0,0-.68,1,1,0,0,0-.12-.45c-.13-.23-.41-.34-.86-.34a1,1,0,0,0-.92.34,1.14,1.14,0,0,0-.13.45,5.74,5.74,0,0,0,0,.6c0,.21,0,.4,0,.55a2.46,2.46,0,0,0,0,.4,1.25,1.25,0,0,0,.1.31A.55.55,0,0,0,65.46,184Z" transform="translate(-0.59)"/><path d="M75,181.22a1.21,1.21,0,0,0-.84.41v3h-.54v-3.83h.47l.06.51a1.5,1.5,0,0,1,.32-.37,1,1,0,0,1,.29-.16,1.18,1.18,0,0,1,.31,0,1.41,1.41,0,0,1,.36.06l0,.51A2.09,2.09,0,0,0,75,181.22Z" transform="translate(-0.59)"/><path d="M82.21,181.22a1.19,1.19,0,0,0-.84.41v3h-.54v-3.83h.47l0,.51a1.34,1.34,0,0,1,.33-.37.86.86,0,0,1,.29-.16,1.17,1.17,0,0,1,.3,0,1.48,1.48,0,0,1,.37.06l0,.51A2.17,2.17,0,0,0,82.21,181.22Z" transform="translate(-0.59)"/><path d="M88,182.67a4.85,4.85,0,0,1,.07-1,1.61,1.61,0,0,1,.18-.45.89.89,0,0,1,.29-.29,2.13,2.13,0,0,1,1.09-.23c.69,0,1.13.18,1.33.52a1.91,1.91,0,0,1,.21.87c0,.18,0,.37,0,.59a5.74,5.74,0,0,1,0,.6,2.49,2.49,0,0,1-.08.5,1.39,1.39,0,0,1-.17.39,1,1,0,0,1-.29.28,2,2,0,0,1-1,.22,1.47,1.47,0,0,1-1.34-.51,1.84,1.84,0,0,1-.23-.87C88,183.09,88,182.89,88,182.67Zm.87,1.35a.86.86,0,0,0,.29.13,2.09,2.09,0,0,0,.48,0,1.31,1.31,0,0,0,.52-.09.63.63,0,0,0,.31-.27,1.35,1.35,0,0,0,.13-.5c0-.21,0-.44,0-.71a6.39,6.39,0,0,0,0-.68,1,1,0,0,0-.12-.45c-.13-.23-.41-.34-.86-.34s-.77.11-.91.34a1,1,0,0,0-.14.45,5.74,5.74,0,0,0,0,.6c0,.21,0,.4,0,.55a2.46,2.46,0,0,0,0,.4,1.25,1.25,0,0,0,.1.31A.65.65,0,0,0,88.84,184Z" transform="translate(-0.59)"/><path d="M96.55,180.75h.57l.81,2.81.15.62.1-.52.84-2.91h.53l.82,2.81.14.62.11-.52.8-2.91H102l-1.14,3.83h-.7l-.74-2.46-.15-.75-.13.75-.73,2.46h-.67Z" transform="translate(-0.59)"/><path d="M107.88,179.83a.41.41,0,0,1-.27-.06.36.36,0,0,1-.1-.27,1.42,1.42,0,0,1,0-.26.36.36,0,0,1,.06-.11.31.31,0,0,1,.24-.08.69.69,0,0,1,.23,0,.2.2,0,0,1,.11.06.3.3,0,0,1,.08.25.79.79,0,0,1,0,.25.23.23,0,0,1-.06.12A.42.42,0,0,1,107.88,179.83Zm-.26.92h.53v3.83h-.52Z" transform="translate(-0.59)"/><path d="M116,181.19a2.56,2.56,0,0,0-1.28.37v3h-.53v-3.83h.47l0,.4a2,2,0,0,1,.87-.41,1.85,1.85,0,0,1,.5-.06,2,2,0,0,1,.51.07.73.73,0,0,1,.34.21,1.43,1.43,0,0,1,.24.95v2.67h-.54V182a1.27,1.27,0,0,0-.09-.6.55.55,0,0,0-.22-.18A1,1,0,0,0,116,181.19Z" transform="translate(-0.59)"/><path d="M125.54,184.21a2.24,2.24,0,0,1-1.3.44,1.06,1.06,0,0,1-1.07-.57,2,2,0,0,1-.18-.82c0-.15,0-.32,0-.5v-.55c0-.18,0-.35,0-.51a2.33,2.33,0,0,1,.11-.42.91.91,0,0,1,.22-.32,1.31,1.31,0,0,1,.9-.28,3,3,0,0,1,1.3.33l0-.26h.47v3.76a1.85,1.85,0,0,1-.32,1.2,1.5,1.5,0,0,1-1.18.4,3.33,3.33,0,0,1-1.14-.17l-.2-.08.17-.45.17.06.27.09a2.91,2.91,0,0,0,.74.1,1.69,1.69,0,0,0,.51-.06.67.67,0,0,0,.28-.21,1.63,1.63,0,0,0,.17-.87Zm0-2.75a2.43,2.43,0,0,0-1.12-.29,1.39,1.39,0,0,0-.52.06.46.46,0,0,0-.19.17.82.82,0,0,0-.11.28,5.76,5.76,0,0,0-.08,1.12v.07a2,2,0,0,0,.18,1,.71.71,0,0,0,.65.29h.05a2,2,0,0,0,.91-.24l.23-.14Z" transform="translate(-0.59)"/><path d="M140.57,183.14h-2l-.46,1.44h-.57l1.61-4.93h.75l1.73,4.93h-.59Zm-1.83-.47h1.68l-.87-2.58-.1.37Z" transform="translate(-0.59)"/><path d="M149.46,184.21a2.21,2.21,0,0,1-1.3.44,1.06,1.06,0,0,1-1.07-.57,2.31,2.31,0,0,1-.18-.82c0-.15,0-.32,0-.5v-.55c0-.18,0-.35,0-.51a1.72,1.72,0,0,1,.12-.42.89.89,0,0,1,.21-.32,1.32,1.32,0,0,1,.91-.28,3,3,0,0,1,1.3.33l.05-.26H150v3.76a1.79,1.79,0,0,1-.32,1.2,1.49,1.49,0,0,1-1.18.4,3.33,3.33,0,0,1-1.14-.17.9.9,0,0,1-.19-.08l.16-.45.17.06.28.09a2.84,2.84,0,0,0,.73.1,1.69,1.69,0,0,0,.51-.06.61.61,0,0,0,.28-.21,1.63,1.63,0,0,0,.17-.87Zm0-2.75a2.43,2.43,0,0,0-1.12-.29,1.43,1.43,0,0,0-.52.06.53.53,0,0,0-.19.17.82.82,0,0,0-.11.28,6,6,0,0,0-.07,1.12v.07a2.16,2.16,0,0,0,.17,1,.71.71,0,0,0,.65.29h0a2,2,0,0,0,.91-.24l.23-.14Z" transform="translate(-0.59)"/><path d="M158.35,184.21a2.24,2.24,0,0,1-1.3.44,1.06,1.06,0,0,1-1.07-.57,2.31,2.31,0,0,1-.18-.82c0-.15,0-.32,0-.5v-.55c0-.18,0-.35,0-.51a2.33,2.33,0,0,1,.11-.42,1.07,1.07,0,0,1,.22-.32,1.32,1.32,0,0,1,.91-.28,3,3,0,0,1,1.29.33l.06-.26h.46v3.76a1.85,1.85,0,0,1-.32,1.2,1.49,1.49,0,0,1-1.18.4,3.33,3.33,0,0,1-1.14-.17.9.9,0,0,1-.19-.08l.16-.45.17.06.27.09a3,3,0,0,0,.74.1,1.69,1.69,0,0,0,.51-.06.67.67,0,0,0,.28-.21,1.63,1.63,0,0,0,.17-.87Zm0-2.75a2.43,2.43,0,0,0-1.12-.29,1.43,1.43,0,0,0-.52.06.53.53,0,0,0-.19.17.82.82,0,0,0-.11.28,6,6,0,0,0-.07,1.12v.07a2.16,2.16,0,0,0,.17,1,.71.71,0,0,0,.65.29h.05a2,2,0,0,0,.91-.24l.23-.14Z" transform="translate(-0.59)"/><path d="M166.16,181.22a1.23,1.23,0,0,0-.84.41v3h-.53v-3.83h.47l.05.51a1.34,1.34,0,0,1,.33-.37.83.83,0,0,1,.28-.16,1.18,1.18,0,0,1,.31,0,1.34,1.34,0,0,1,.36.06l0,.51A2.21,2.21,0,0,0,166.16,181.22Z" transform="translate(-0.59)"/><path d="M175,184.38a3.94,3.94,0,0,1-1.48.27,3,3,0,0,1-.79-.1,1,1,0,0,1-.69-.61,4.19,4.19,0,0,1-.15-1.29v-.17a2,2,0,0,1,.42-1.43,1.85,1.85,0,0,1,1.28-.37,1.39,1.39,0,0,1,1.19.44,1.26,1.26,0,0,1,.21.5,3.88,3.88,0,0,1,.05.57c0,.28,0,.5,0,.66h-1.34a8.09,8.09,0,0,1-1.25-.07,2.12,2.12,0,0,0,.19,1,1,1,0,0,0,.91.35,3.26,3.26,0,0,0,1.31-.26Zm-.51-2v-.31a1,1,0,0,0-.2-.72,1,1,0,0,0-.75-.24,1.1,1.1,0,0,0-.88.28,1.55,1.55,0,0,0-.23,1Z" transform="translate(-0.59)"/><path d="M183.38,184.21a2.27,2.27,0,0,1-1.31.44,1.07,1.07,0,0,1-1.07-.57,2.31,2.31,0,0,1-.18-.82c0-.15,0-.32,0-.5s0-.36,0-.55a4.06,4.06,0,0,1,0-.51,1.72,1.72,0,0,1,.11-.42.8.8,0,0,1,.22-.32,1.27,1.27,0,0,1,.9-.28,3,3,0,0,1,1.3.33l.05-.26h.47v3.76a1.79,1.79,0,0,1-.33,1.2,1.46,1.46,0,0,1-1.17.4,3.33,3.33,0,0,1-1.14-.17l-.2-.08.17-.45.17.06.27.09a2.89,2.89,0,0,0,.73.1,1.72,1.72,0,0,0,.52-.06.67.67,0,0,0,.28-.21,1.63,1.63,0,0,0,.17-.87Zm0-2.75a2.46,2.46,0,0,0-1.13-.29,1.37,1.37,0,0,0-.51.06.56.56,0,0,0-.2.17.82.82,0,0,0-.1.28,5.76,5.76,0,0,0-.08,1.12v.07a2,2,0,0,0,.18,1,.7.7,0,0,0,.65.29h0a2,2,0,0,0,.91-.24l.24-.14Z" transform="translate(-0.59)"/><path d="M192.75,183.22c0,.43,0,.87.06,1.34l-.48,0-.08-.44a2.32,2.32,0,0,1-1.08.45,2.08,2.08,0,0,1-.39.05l-.3,0a1,1,0,0,1-.25-.06,1,1,0,0,1-.23-.13.88.88,0,0,1-.18-.23,1.39,1.39,0,0,1-.16-.7,2.66,2.66,0,0,1,.06-.64.87.87,0,0,1,.2-.38,1.2,1.2,0,0,1,.92-.3,4.49,4.49,0,0,1,1.38.25V182a.74.74,0,0,0-.58-.83,2.52,2.52,0,0,0-.43,0,3.24,3.24,0,0,0-1.14.22l-.12-.46a2.35,2.35,0,0,1,.84-.2,3.68,3.68,0,0,1,.51,0,2.25,2.25,0,0,1,.58.08,1,1,0,0,1,.48.23,1.24,1.24,0,0,1,.39,1Zm-.54-.38a6.15,6.15,0,0,0-1.39-.19.56.56,0,0,0-.53.23,1.08,1.08,0,0,0-.08.46,2.34,2.34,0,0,0,0,.45.55.55,0,0,0,.11.23.66.66,0,0,0,.5.17,2.29,2.29,0,0,0,1.08-.28,1.53,1.53,0,0,0,.3-.19C192.21,183.49,192.21,183.2,192.21,182.84Z" transform="translate(-0.59)"/><path d="M200.59,184.4a2.36,2.36,0,0,1-1,.25c-.54,0-.84-.23-.91-.69a2.88,2.88,0,0,1,0-.48V181.2h-.46v-.4l.46-.05.08-.88h.45v.88h1.12v.45h-1.12v2.27a1.37,1.37,0,0,0,.06.51.44.44,0,0,0,.43.2,1.67,1.67,0,0,0,.71-.2Z" transform="translate(-0.59)"/><path d="M205.84,182.67a4.85,4.85,0,0,1,.07-1,1.61,1.61,0,0,1,.18-.45,1,1,0,0,1,.29-.29,2.13,2.13,0,0,1,1.09-.23c.69,0,1.14.18,1.33.52a1.91,1.91,0,0,1,.21.87c0,.18,0,.37,0,.59s0,.41,0,.6a3.44,3.44,0,0,1-.09.5,1.15,1.15,0,0,1-.17.39,1,1,0,0,1-.29.28,2,2,0,0,1-1,.22,1.47,1.47,0,0,1-1.34-.51,2,2,0,0,1-.23-.87C205.84,183.09,205.84,182.89,205.84,182.67Zm.87,1.35a.86.86,0,0,0,.29.13,2.09,2.09,0,0,0,.48,0,1.31,1.31,0,0,0,.52-.09.63.63,0,0,0,.31-.27,1.35,1.35,0,0,0,.13-.5c0-.21,0-.44,0-.71a6.39,6.39,0,0,0,0-.68,1,1,0,0,0-.12-.45c-.13-.23-.41-.34-.86-.34s-.77.11-.91.34a1.14,1.14,0,0,0-.14.45,5.74,5.74,0,0,0,0,.6c0,.21,0,.4,0,.55s0,.28,0,.4a1.25,1.25,0,0,0,.1.31A.79.79,0,0,0,206.71,184Z" transform="translate(-0.59)"/><path d="M216.21,181.22a1.23,1.23,0,0,0-.84.41v3h-.53v-3.83h.47l.05.51a1.34,1.34,0,0,1,.33-.37.83.83,0,0,1,.28-.16,1.18,1.18,0,0,1,.31,0,1.34,1.34,0,0,1,.36.06l0,.51A2.21,2.21,0,0,0,216.21,181.22Z" transform="translate(-0.59)"/><g id="bear"><path class="cls-1" d="M59.53,36.2s-8.33,0-11.66-5.66c-1.83-3.1-1-8.51-1-8.51S50.53,25,52,23.7,51.37,17,51.37,17s2.43-.33,2.33-2c-.17-2.67-4.5-4.67-4.5-4.67A15.93,15.93,0,0,1,62.53,1.7c18-1.5,19,12.17,19,12.17A72.56,72.56,0,0,1,106.2,10.2a83.66,83.66,0,0,1,26.5,5.5s3.14-8,7.5-10.83C145,1.7,154.37.53,161.37,5.2s12,16.33,6.83,25.5-13.5,7.84-13.5,7.84,13.5,30.16,12.67,47.83-19.17,28.17-28.17,30.5-42.95,9.61-71.33-6.67C46.37,97.87,46.87,87.37,51.2,65S59.53,36.2,59.53,36.2Z" transform="translate(-0.59)"/><path class="cls-2" d="M85.87,117.24c-1.23-.4-13.38-21.37-13-26.5s8.75-20.25,15.62-22.12,31.25-3.38,38.13-.75,17.62,17.37,17.87,22.37-6.75,23.5-9.25,25.88S96.12,120.62,85.87,117.24Z" transform="translate(-0.59)"/><path class="cls-3" d="M96.87,75.2A44.73,44.73,0,0,1,102,73.7c1.34-.17,5.5-.5,5.5-.5l-2.83,8Z" transform="translate(-0.59)"/><path d="M161.53,49.2c-7.69-20.66-16.33-29.88-26.33-35C125,9,108.92,7.52,103,7.87c-6.37.37-15.16.75-24.66,6.5S62.2,25.37,54,47.2c-6.34,17-12.26,43.24-5.16,51.67C54.7,105.79,77.23,124.41,110,123c45.92-1.92,53.91-18.91,57.09-23.66C171.53,92.74,171.16,75.05,161.53,49.2Zm-23.79,64.42c-11.87,3.5-34,6.08-50.62,1.25C67.88,109.26,54.7,97.2,52.37,93c-3.64-6.48.26-34.7,11.83-58.5,8.67-17.83,28.29-21.79,40.17-22.16,9.24-.29,37,.66,48.66,28.33,5.73,13.58,15.13,42.17,11.17,51.67C161.7,98.37,151.66,109.51,137.74,113.62Z" transform="translate(-0.59)"/><path d="M79.37,16.45s-.5-8.21-5.17-10.83c-7.71-4.34-17.7-1-19.33-.09-1.88,1.09-4,4.46-4,4.46s3.5,1.88,3.66,4.79a3.08,3.08,0,0,1-2,2.92s2.17,4.5.5,7c-1.43,2.15-5.25-.5-5.25-.5s-.26,4.68,2.92,6.67C56.7,34.62,61.45,34,61.45,34L59.2,43.2s-7.33-3.5-12-9c-3.25-3.83-2-15.33-2-15.33s3.71,3.58,5.21,3.58-.33-6.83-.33-6.83,2.91.16,1.5-1.67a8.42,8.42,0,0,0-4.09-2.58s4.34-8.17,8.84-9.75c7.95-2.8,17-1.86,22.25,2C82,6.12,84,14.78,84,14.78Z" transform="translate(-0.59)"/><path d="M75.12,44.49l-6,7.63,7.25,2.62.5,3,7.37,3.5-8.87,6.13,2,1.12s9.37-2.62,12.25-3.25,9.12-1.75,9.12-1.75L104,59l-.37-8.75-2.13,1.5-.75,5.75s-6.12-1.37-13.5-3.5-13.12-3.12-13.12-3.12l2.12-4.63Z" transform="translate(-0.59)"/><path d="M82.2,117.7s-12.07-21-12-25.5C70.37,81.53,82,68,88.53,66.7,98.6,64.63,124.41,64,132,68.53c5.34,3.17,15.34,17.67,14.34,23.17-2,11.18-8.84,24.33-8.84,24.33l-6.16,1.5S142.2,99.87,142.2,90.7c0-5.6-11.33-19.83-15.83-21.17-6.75-2-29.3-1.27-34-.33-3.34.67-4.5-.17-10.17,7-3.41,4.32-7.67,11-7.5,14.67.35,7.66,14,27.16,14,27.16Z" transform="translate(-0.59)"/><polygon points="105.44 85.2 105.28 98.87 109.11 97.37 109.28 85.31 105.44 85.2"/><path d="M98.62,105.62l2-1.19s0-1.69.68-1.94c2-.73,24.23-9.54,26.07-10,.91-.25,1.5-.65,2.25.42.43.61,1.87,3.18,1.87,3.18l2.31-.18s-3.1-8.67-4.6-8.17S112.7,94.37,108,96.53s-7.56,3.55-8.73,4.21C98.43,101.24,98.62,105.62,98.62,105.62Z" transform="translate(-0.59)"/><path d="M117.83,100.41s3.33-2.63,4.85-3,4.48,2.22,4.48,2.22l-2.41.31s-1.91-.65-3-.06-3.89,2.08-3.89,2.08Z" transform="translate(-0.59)"/><path d="M71.18,21.24s2.3-3-1.31-7c-2.75-3-6.93-2.47-9.13-1.12-1.62,1-4,4.37-4,4.37A9.61,9.61,0,0,0,59.12,21a5.54,5.54,0,0,0,4.25,1s-.6,1.27-3.75,2.13a6.27,6.27,0,0,1-3.13-.25s-.62,3.62,6.63,5.12C67.36,29.87,71.18,21.24,71.18,21.24Z" transform="translate(-0.59)"/><path d="M135.57,16.45s2.4-8.88,6-10.58c7.67-3.67,15-2,17.17-.84s10.5,7.84,10,17.34c-.1,1.81-.5,7.5-4.83,9.5a28.46,28.46,0,0,1-10,2.5l1.87,8.83a87.19,87.19,0,0,0,11.46-7c3.67-2.67,4.5-6.66,4.5-13.67,0-11.16-7-18.67-13.13-20.91C153.37-.3,141.49.87,138,3.53c-2.16,1.67-7.66,10.34-7.66,10.34Z" transform="translate(-0.59)"/><path d="M143.76,21.24S141.92,18,145.53,14c2.75-3,8.22-2.46,10.34-1a10.86,10.86,0,0,1,4.66,7.5,7.64,7.64,0,0,1-4.33,1.67,21.54,21.54,0,0,1-4.63-.21,8.59,8.59,0,0,0,4,3,8.25,8.25,0,0,0,3.67,0s-1,3.34-7.38,4C147.51,29.42,143.76,21.24,143.76,21.24Z" transform="translate(-0.59)"/><path d="M46.53,77.37c-2.45,9.5-3.74,28.06-3.74,28.06A24.88,24.88,0,0,1,46,100.26c1.55-1.58,2.79-2.91,2.79-2.91Z" transform="translate(-0.59)"/><path d="M48.19,83.62C45.74,93.12,47,103.7,47,103.7l5.34-3.33Z" transform="translate(-0.59)"/><path d="M168.62,77.37c2.45,9.5,3.75,28.06,3.75,28.06a25.08,25.08,0,0,0-3.26-5.17c-1.54-1.58-2.79-2.91-2.79-2.91Z" transform="translate(-0.59)"/><path d="M167,83.62c2.45,9.5,1.16,20.08,1.16,20.08l-5.33-3.33Z" transform="translate(-0.59)"/><path d="M104.2,119.2c5.5-1.5,8.33-7,8.33-7a7.65,7.65,0,0,1-.16,5.67C111,120.7,104.2,119.2,104.2,119.2Z" transform="translate(-0.59)"/><path d="M49.49,66.49a64.59,64.59,0,0,0,6.13,9.88c2.87,4,9.25,9.5,9.25,9.5l-.75-3a92,92,0,0,1-6.75-9.63C54.12,67.87,51,58.87,51,58.87Z" transform="translate(-0.59)"/><path d="M63,74.2S58.83,71,55.45,74c-3.08,2.75-1.62,8.13-1.62,8.13l1.08-1s.15-3.59,1.87-5.25A5,5,0,0,1,62,75Z" transform="translate(-0.59)"/><path d="M65,79.3a4.26,4.26,0,0,0-5.37.32c-2.23,2.06-.57,6.5-.57,6.5L60,85.05A4.84,4.84,0,0,1,60.93,81a2.56,2.56,0,0,1,3.12-.81Z" transform="translate(-0.59)"/><path d="M117.87,73.24a28.57,28.57,0,0,0-3.17-1.37L110.2,77,112,71.2a54.88,54.88,0,0,0-9.83.67,30.47,30.47,0,0,0-8.5,2.83s2.75,3.3,5.17,6.1a98.56,98.56,0,0,0,9,8.57s3.12-3.59,6.06-6.82c3.5-3.83,6.87-7.31,6.87-7.31A26.94,26.94,0,0,0,117.87,73.24Zm-14.13,6.63-4.62-4a33.77,33.77,0,0,1,3.39-1.12,29.66,29.66,0,0,1,3.8-.71Z" transform="translate(-0.59)"/><path d="M118.62,47a14.51,14.51,0,0,1,1.82-2.39A144.32,144.32,0,0,1,103.2,23.37a99.62,99.62,0,0,1-7-12.84l-6.5,1.34S94.57,20.58,103.2,33c2.46.94,6.17,2.13,6.17,2.13l-3.46,1.67A98.91,98.91,0,0,0,117,49.5C117.44,48.86,118,48,118.62,47Z" transform="translate(-0.59)"/><path d="M163.7,65.87a14.94,14.94,0,0,1-11-.34c-2.47-1-5.13-2.23-7.85-3.61-.21.72-.42,1.39-.61,1.88a15.92,15.92,0,0,1-1.93,3.35c1.75.85,3.5,1.65,5.22,2.38,13.57,5.77,17.34,1,17.34,1Z" transform="translate(-0.59)"/><path d="M127.53,68.53a31.5,31.5,0,0,0-7.5-1.16c-1.3,0-4.91.37-4.91.37-.27-.2-6.23-4.55-3-15.92,2.09-7.38,9.94-13,18.26-13A18.85,18.85,0,0,1,141,42.21c8.41,5.74,11,13.31,7.36,21.32a21.41,21.41,0,0,1-11,11l-.87.32S130.87,69.7,127.53,68.53Z" transform="translate(-0.59)"/><path class="cls-4" d="M117.5,65.82s-5.29-3.45-2.6-13c2.34-8.24,14.31-14.61,24.11-7.93s7.87,14,6.22,17.58a18.18,18.18,0,0,1-9.18,9.33s-5.38-3.72-8.53-4.68C124.74,66.31,117.5,65.82,117.5,65.82Z" transform="translate(-0.59)"/><path d="M116.77,58a11.54,11.54,0,0,1,7-11.51c10.1-4.51,19,2.49,19.75,8.86,1,8.28-4.36,10.42-4.36,10.42a9.68,9.68,0,0,0,3-10.89c-2.24-6.34-9.19-9-14.58-8.09A12.34,12.34,0,0,0,116.77,58Z" transform="translate(-0.59)"/><path id="path3078" class="cls-5" d="M128.38,55.31l-3.92,4.59,6.36.61,3.59-5.27Z" transform="translate(-0.59)"/><path id="path3094" class="cls-6" d="M124.46,59.9l6.36.61-2.44-5.2-2.81-6Z" transform="translate(-0.59)"/><path id="path3110" class="cls-7" d="M125.57,49.32l2.81,6,2.44,5.2,3.59-5.27Z" transform="translate(-0.59)"/><path id="path3126" class="cls-6" d="M124.91,60.85l8.26,4.67-1.91-4.07Z" transform="translate(-0.59)"/><path id="path3142" class="cls-7" d="M131.26,61.45l1.91,4.07,1.69-9.34Z" transform="translate(-0.59)"/></g></g></g></svg>